<svg width="19" height="276" viewBox="0 0 19 276" fill="none" xmlns="http://www.w3.org/2000/svg">
<line y1="-0.5" x2="115.293" y2="-0.5" transform="matrix(0 1 1 0 19 0.539124)" stroke="#F459BF"/>
<line y1="-0.5" x2="115.293" y2="-0.5" transform="matrix(0 1 1 0 19 160.377)" stroke="#F459BF"/>
<rect width="10.9191" height="10.4812" transform="matrix(-1 0 0 1 11.2002 4.46954)" fill="#F529A3"/>
<rect width="10.9191" height="10.4812" transform="matrix(-1 0 0 1 11.2002 22.8115)" fill="#F529A3"/>
<rect width="10.9191" height="10.4812" transform="matrix(-1 0 0 1 11.2002 41.1536)" fill="#F529A3"/>
<rect width="10.9191" height="10.4812" transform="matrix(-1 0 0 1 11.2002 59.4956)" fill="#F529A3"/>
<rect width="10.9191" height="10.4812" transform="matrix(-1 0 0 1 11.2002 77.8376)" fill="#F529A3"/>
<rect width="10.9191" height="10.4812" transform="matrix(-1 0 0 1 11.2002 96.1797)" fill="#F529A3"/>
<rect width="10.9191" height="10.4812" transform="matrix(-1 0 0 1 11.2002 166.928)" fill="#F529A3"/>
<rect width="10.9191" height="10.4812" transform="matrix(-1 0 0 1 11.2002 185.27)" fill="#F529A3"/>
<rect width="10.9191" height="10.4812" transform="matrix(-1 0 0 1 11.2002 203.612)" fill="#F529A3"/>
<rect width="10.9191" height="10.4812" transform="matrix(-1 0 0 1 11.2002 221.954)" fill="#F529A3"/>
<rect width="10.9191" height="10.4812" transform="matrix(-1 0 0 1 11.2002 240.296)" fill="#F529A3"/>
<rect width="10.9191" height="10.4812" transform="matrix(-1 0 0 1 11.2002 258.638)" fill="#F529A3"/>
</svg>
