<svg width="241" height="47" viewBox="0 0 241 47" fill="none" xmlns="http://www.w3.org/2000/svg">
<path d="M0.6 0.727997H20.632C21.3147 0.727997 21.8693 0.962664 22.296 1.432C22.7227 1.90133 22.936 2.52 22.936 3.288V47H16.216C14.7653 47 13.8053 46.7653 13.336 46.296C12.9093 45.8267 12.696 44.8453 12.696 43.352V8.728H2.456C1.21867 8.728 0.6 7.704 0.6 5.656V0.727997ZM25.496 0.727997H35.736C36.9733 0.727997 37.592 1.752 37.592 3.8V8.728H25.496V0.727997ZM51.309 47H51.181C46.957 47 44.3543 46.2747 43.373 44.824C42.9037 44.1413 42.5197 43.48 42.221 42.84C41.965 42.2 41.7943 41.1973 41.709 39.832C41.4957 37.3573 41.389 34.6053 41.389 31.576C41.389 28.5467 41.4103 26.3707 41.453 25.048C41.4957 23.6827 41.6237 22.3173 41.837 20.952C42.093 19.544 42.413 18.5413 42.797 17.944C43.181 17.304 43.757 16.728 44.525 16.216C45.293 15.704 46.189 15.384 47.213 15.256C48.237 15.0853 49.5597 15 51.181 15H51.309V47ZM68.333 36.888V40.152C68.333 44.7173 66.0077 47 61.357 47H53.293V42.2H56.749C57.645 42.2 58.1997 42.072 58.413 41.816C58.6263 41.5173 58.733 41.0053 58.733 40.28V38.232C58.733 37.592 58.797 37.2293 58.925 37.144C59.0957 37.0587 59.2023 37.016 59.245 37.016C59.2877 36.9733 59.3943 36.952 59.565 36.952C59.7783 36.9093 59.9277 36.888 60.013 36.888C62.7863 36.888 65.5597 36.888 68.333 36.888ZM53.293 15H60.717C63.661 15 65.6663 15.576 66.733 16.728C67.7997 17.88 68.333 19.5867 68.333 21.848V27.48C68.333 31.32 66.2423 33.24 62.061 33.24H52.653V28.44H56.109C57.133 28.44 57.8157 28.312 58.157 28.056C58.541 27.8 58.733 27.3093 58.733 26.584V21.72C58.733 20.9947 58.6263 20.504 58.413 20.248C58.1997 19.9493 57.645 19.8 56.749 19.8H53.293V15ZM84.559 47H84.431C80.207 47 77.6043 46.2747 76.623 44.824C76.1537 44.1413 75.7697 43.48 75.471 42.84C75.215 42.2 75.0443 41.1973 74.959 39.832C74.7457 37.3573 74.639 34.6053 74.639 31.576C74.639 28.5467 74.6603 26.3707 74.703 25.048C74.7457 23.6827 74.8737 22.3173 75.087 20.952C75.343 19.544 75.663 18.5413 76.047 17.944C76.431 17.304 77.007 16.728 77.775 16.216C78.543 15.704 79.439 15.384 80.463 15.256C81.487 15.0853 82.8097 15 84.431 15H84.559V47ZM91.983 36.888C94.8417 36.888 97.0177 36.888 98.511 36.888C100.004 36.888 100.772 36.9093 100.815 36.952C100.858 36.952 100.922 36.9733 101.007 37.016C101.135 37.016 101.22 37.0373 101.263 37.08C101.306 37.1227 101.348 37.1867 101.391 37.272C101.434 37.3147 101.455 37.4 101.455 37.528C101.54 37.8267 101.583 38.0613 101.583 38.232V40.152C101.583 44.7173 99.2577 47 94.607 47H86.543V42.2H89.999C90.895 42.2 91.4497 42.072 91.663 41.816C91.8763 41.5173 91.983 41.0053 91.983 40.28V36.888ZM86.543 15H94.607C99.2577 15 101.583 17.2827 101.583 21.848V26.2C98.7243 26.2 96.5483 26.2 95.055 26.2C93.5617 26.2 92.7937 26.2 92.751 26.2C92.7083 26.1573 92.623 26.136 92.495 26.136C92.4097 26.0933 92.3457 26.0507 92.303 26.008C92.2603 25.9653 92.2177 25.9227 92.175 25.88C92.1323 25.7947 92.111 25.7093 92.111 25.624C92.0257 25.2827 91.983 25.0267 91.983 24.856V21.72C91.983 20.9947 91.8763 20.504 91.663 20.248C91.4497 19.9493 90.895 19.8 89.999 19.8H86.543V15ZM108.025 0.727997H111.929C113.806 0.727997 115.214 1.19733 116.153 2.136C117.134 3.032 117.625 4.20533 117.625 5.656V47H110.329C109.646 47 109.091 46.7653 108.665 46.296C108.238 45.8267 108.025 45.208 108.025 44.44V0.727997ZM125.305 32.472H132.601C133.283 32.472 133.838 32.7067 134.265 33.176C134.691 33.6453 134.905 34.264 134.905 35.032V47H127.609C126.926 47 126.371 46.7653 125.945 46.296C125.518 45.8267 125.305 45.208 125.305 44.44V32.472ZM134.265 15V23.832C134.265 28.3973 131.939 30.68 127.289 30.68H119.225V25.88H122.681C123.577 25.88 124.131 25.752 124.345 25.496C124.558 25.1973 124.665 24.6853 124.665 23.96V17.624C124.665 15.8747 125.433 15 126.969 15H134.265ZM159.312 15H165.52C167.056 15 167.824 15.8747 167.824 17.624V26.648C167.824 29.8907 167.483 31.8107 166.8 32.408C165.819 33.176 164.475 33.56 162.768 33.56H152.784V28.76H156.24C157.136 28.76 157.691 28.632 157.904 28.376C158.117 28.0773 158.224 27.5867 158.224 26.904V16.216C158.224 15.576 158.331 15.2133 158.544 15.128C158.757 15.0427 159.013 15 159.312 15ZM150.864 47H145.168C142.565 47 141.264 45.6987 141.264 43.096V33.048C141.264 31.7253 141.52 30.68 142.032 29.912C142.544 29.144 143.547 28.76 145.04 28.76H150.864V47ZM167.824 36.824V43.48C167.824 45.8267 166.651 47 164.304 47H152.784V42.2H156.24C157.136 42.2 157.691 42.072 157.904 41.816C158.117 41.5173 158.224 41.0053 158.224 40.28V36.824H167.824ZM156.432 19.8H152.976C152.08 19.8 151.525 19.9493 151.312 20.248C151.099 20.504 150.992 20.9947 150.992 21.72V25.176H141.392V18.52C141.392 16.1733 142.565 15 144.912 15H156.432V19.8ZM174.837 15.064H178.741C180.618 15.064 182.026 15.5333 182.965 16.472C183.946 17.368 184.437 18.5413 184.437 19.992V47H177.141C176.458 47 175.904 46.7653 175.477 46.296C175.05 45.8267 174.837 45.208 174.837 44.44V15.064ZM175.285 1.432C175.754 0.962664 177.12 0.727997 179.381 0.727997C181.642 0.727997 183.008 0.962664 183.477 1.432C183.946 1.85867 184.181 3.13867 184.181 5.272C184.181 7.40533 183.925 8.70666 183.413 9.176C182.944 9.64533 181.6 9.88 179.381 9.88C177.162 9.88 175.797 9.64533 175.285 9.176C174.816 8.70666 174.581 7.40533 174.581 5.272C174.581 3.13867 174.816 1.85867 175.285 1.432ZM208.031 46.488C208.031 46.744 207.903 46.9147 207.647 47H202.783C199.668 47 197.407 46.3813 195.999 45.144C194.591 43.9067 193.887 41.7307 193.887 38.616V19.928H190.623C189.556 19.928 189.023 19.288 189.023 18.008V15H193.887V0.727997H197.791C199.668 0.727997 201.076 1.19733 202.015 2.136C202.996 3.07467 203.487 4.26933 203.487 5.72V39.768C203.487 41.3467 204.383 42.136 206.175 42.136H207.519C207.86 42.136 208.031 42.2853 208.031 42.584V46.488ZM210.015 15V18.008C210.015 19.288 209.481 19.928 208.415 19.928H205.087V15H210.015ZM223.684 47H223.556C219.332 47 216.729 46.2747 215.748 44.824C215.279 44.1413 214.895 43.48 214.596 42.84C214.34 42.2 214.169 41.1973 214.084 39.832C213.871 37.3573 213.764 34.6053 213.764 31.576C213.764 28.5467 213.785 26.3707 213.828 25.048C213.871 23.6827 213.999 22.3173 214.212 20.952C214.468 19.544 214.788 18.5413 215.172 17.944C215.556 17.304 216.132 16.728 216.9 16.216C217.668 15.704 218.564 15.384 219.588 15.256C220.612 15.0853 221.935 15 223.556 15H223.684V47ZM240.708 36.888V40.152C240.708 44.7173 238.383 47 233.732 47H225.668V42.2H229.124C230.02 42.2 230.575 42.072 230.788 41.816C231.001 41.5173 231.108 41.0053 231.108 40.28V38.232C231.108 37.592 231.172 37.2293 231.3 37.144C231.471 37.0587 231.577 37.016 231.62 37.016C231.663 36.9733 231.769 36.952 231.94 36.952C232.153 36.9093 232.303 36.888 232.388 36.888C235.161 36.888 237.935 36.888 240.708 36.888ZM225.668 15H233.092C236.036 15 238.041 15.576 239.108 16.728C240.175 17.88 240.708 19.5867 240.708 21.848V27.48C240.708 31.32 238.617 33.24 234.436 33.24H225.028V28.44H228.484C229.508 28.44 230.191 28.312 230.532 28.056C230.916 27.8 231.108 27.3093 231.108 26.584V21.72C231.108 20.9947 231.001 20.504 230.788 20.248C230.575 19.9493 230.02 19.8 229.124 19.8H225.668V15Z" fill="white"/>
</svg>
