<svg width="270" height="42" viewBox="0 0 270 42" fill="none" xmlns="http://www.w3.org/2000/svg">
<rect width="270" height="40" fill="url(#paint0_linear_144_37)"/>
<path d="M38 8.5H38.118L38.2236 8.44721L54.118 0.5H269.5V21.7427L259.34 29H181H180.778L180.629 29.1645L171.278 39.5H0.5V17.7595L13.6583 8.5H38Z" fill="#000429" stroke="url(#paint1_linear_144_37)"/>
<path d="M38 8.5H38.118L38.2236 8.44721L54.118 0.5H269.5V21.7427L259.34 29H181H180.778L180.629 29.1645L171.278 39.5H0.5V17.7595L13.6583 8.5H38Z" fill="#000429" stroke="url(#paint2_linear_144_37)"/>
<path d="M197.94 37.04C198.713 37.04 199.1 36.71 199.1 36.05C199.1 35.77 198.953 35.5333 198.66 35.34C198.447 35.1933 198.153 35.0367 197.78 34.87C197.413 34.6967 197.137 34.56 196.95 34.46C196.77 34.36 196.56 34.22 196.32 34.04C195.86 33.6867 195.63 33.2467 195.63 32.72C195.63 32.1933 195.833 31.7567 196.24 31.41C196.653 31.0567 197.21 30.88 197.91 30.88C198.61 30.88 199.357 31.1033 200.15 31.55C200.15 32.03 200.1 32.55 200 33.11C199.787 33.1767 199.47 33.21 199.05 33.21L198.76 32.02C198.513 31.9467 198.243 31.91 197.95 31.91C197.657 31.91 197.43 31.9733 197.27 32.1C197.11 32.2267 197.03 32.4167 197.03 32.67C197.03 32.9167 197.153 33.14 197.4 33.34C197.653 33.5333 197.957 33.7133 198.31 33.88C198.663 34.04 198.907 34.1533 199.04 34.22C199.173 34.2867 199.343 34.3867 199.55 34.52C199.757 34.6533 199.913 34.78 200.02 34.9C200.293 35.22 200.43 35.5767 200.43 35.97C200.43 36.6633 200.2 37.1967 199.74 37.57C199.28 37.9433 198.68 38.13 197.94 38.13C197.547 38.13 197.113 38.0633 196.64 37.93C196.173 37.79 195.777 37.6133 195.45 37.4C195.463 36.9933 195.517 36.4433 195.61 35.75C195.877 35.6967 196.197 35.67 196.57 35.67L196.78 36.87C197.147 36.9833 197.533 37.04 197.94 37.04ZM209.622 32.88C209.749 32.88 209.829 32.8833 209.862 32.89C209.862 33.23 209.806 33.5233 209.692 33.77C209.652 35.2367 209.619 36.32 209.592 37.02C209.892 37.0467 210.156 37.0967 210.382 37.17L210.362 37.87C209.956 37.9967 209.606 38.06 209.312 38.06C209.019 38.06 208.819 38.0533 208.712 38.04C208.632 37.88 208.566 37.72 208.512 37.56C207.959 37.9333 207.559 38.12 207.312 38.12C206.119 38.12 205.522 37.5167 205.522 36.31C205.522 35.9833 205.549 35.18 205.602 33.9C205.249 33.9 204.926 33.8533 204.632 33.76C204.632 33.5933 204.656 33.3533 204.702 33.04C205.096 32.9333 205.769 32.88 206.722 32.88C206.849 32.88 206.929 32.8833 206.962 32.89C206.962 33.2167 206.906 33.52 206.792 33.8V35.82C206.792 36.2467 206.836 36.56 206.922 36.76C207.016 36.9533 207.209 37.05 207.502 37.05C207.802 37.05 208.109 36.9467 208.422 36.74L208.362 33.9C208.069 33.8867 207.792 33.84 207.532 33.76C207.532 33.5933 207.556 33.3533 207.602 33.04C207.996 32.9333 208.669 32.88 209.622 32.88ZM216.37 30.57C216.53 30.57 216.633 30.5733 216.68 30.58C216.68 30.9267 216.636 31.23 216.55 31.49L216.52 33.17C217.14 32.9233 217.566 32.8 217.8 32.8C218.46 32.8 218.946 33.0467 219.26 33.54C219.58 34.0267 219.74 34.66 219.74 35.44C219.74 36.22 219.563 36.8633 219.21 37.37C218.856 37.87 218.343 38.12 217.67 38.12C217.23 38.12 216.766 37.9533 216.28 37.62C216.253 37.7733 216.213 37.9133 216.16 38.04C216.04 38.0533 215.92 38.06 215.8 38.06C215.68 38.06 215.53 38.04 215.35 38L215.14 31.6C214.826 31.5667 214.563 31.5167 214.35 31.45C214.35 31.2033 214.373 30.9633 214.42 30.73C214.806 30.6233 215.456 30.57 216.37 30.57ZM217.63 33.85C217.196 33.85 216.823 33.9267 216.51 34.08C216.496 35.2 216.483 36.0467 216.47 36.62C216.63 36.7533 216.813 36.8733 217.02 36.98C217.226 37.0867 217.403 37.14 217.55 37.14C218.13 37.14 218.42 36.6067 218.42 35.54C218.42 35.0867 218.356 34.6933 218.23 34.36C218.11 34.02 217.91 33.85 217.63 33.85ZM223.783 39.5L223.993 39.51C224.213 39.51 224.373 39.3933 224.473 39.16C224.579 38.9333 224.633 38.65 224.633 38.31C224.633 37.4767 224.583 36.01 224.483 33.91C224.089 33.87 223.799 33.82 223.613 33.76C223.613 33.5933 223.636 33.3533 223.683 33.04C224.076 32.9333 224.749 32.88 225.703 32.88C225.829 32.88 225.909 32.8833 225.943 32.89C225.943 33.2167 225.886 33.52 225.773 33.8L225.733 38.13C225.726 38.9167 225.603 39.49 225.363 39.85C225.123 40.2167 224.653 40.4 223.953 40.4C223.726 40.4 223.446 40.3467 223.113 40.24C222.773 40.14 222.533 40.0433 222.393 39.95C222.426 39.31 222.496 38.83 222.603 38.51C222.756 38.45 222.959 38.42 223.213 38.42L223.543 38.43L223.783 39.5ZM225.703 30.99C225.763 31.29 225.793 31.52 225.793 31.68C225.793 31.8333 225.779 32.0067 225.753 32.2C225.486 32.26 225.259 32.29 225.073 32.29C224.893 32.29 224.673 32.28 224.413 32.26C224.353 31.96 224.323 31.7333 224.323 31.58C224.323 31.42 224.336 31.2433 224.363 31.05C224.629 30.99 224.853 30.96 225.033 30.96C225.219 30.96 225.443 30.97 225.703 30.99ZM232.994 37.14C233.221 37.14 233.681 36.9833 234.374 36.67C234.521 36.8833 234.631 37.13 234.704 37.41C234.338 37.6367 233.978 37.8133 233.624 37.94C233.278 38.06 233.031 38.12 232.884 38.12C232.078 38.12 231.464 37.8967 231.044 37.45C230.631 37.0033 230.424 36.37 230.424 35.55C230.424 34.7233 230.631 34.06 231.044 33.56C231.458 33.0533 232.071 32.8 232.884 32.8C233.531 32.8 234.024 33.01 234.364 33.43C234.704 33.85 234.874 34.3967 234.874 35.07C234.874 35.21 234.794 35.37 234.634 35.55L231.754 35.5C231.768 36.0333 231.868 36.44 232.054 36.72C232.241 37 232.554 37.14 232.994 37.14ZM232.794 33.63C232.541 33.63 232.304 33.68 232.084 33.78C231.931 34.1 231.834 34.3967 231.794 34.67C232.314 34.65 232.904 34.6367 233.564 34.63C233.531 33.9633 233.274 33.63 232.794 33.63ZM242.011 33.63L241.851 33.62C241.478 33.62 241.178 33.75 240.951 34.01C240.731 34.2633 240.621 34.6933 240.621 35.3C240.621 35.9 240.705 36.3567 240.871 36.67C241.045 36.9833 241.375 37.14 241.861 37.14C242.088 37.14 242.568 36.9867 243.301 36.68C243.468 36.9133 243.558 37.1567 243.571 37.41C243.205 37.6367 242.845 37.8133 242.491 37.94C242.145 38.0667 241.898 38.13 241.751 38.13C240.931 38.13 240.318 37.9067 239.911 37.46C239.505 37.0067 239.301 36.3733 239.301 35.56C239.301 33.72 240.131 32.8 241.791 32.8C242.078 32.8 242.371 32.8367 242.671 32.91C242.978 32.9767 243.218 33.0633 243.391 33.17C243.371 33.8367 243.298 34.32 243.171 34.62C242.951 34.6733 242.641 34.7 242.241 34.7L242.011 33.63ZM248.978 38.12L248.758 38.11C248.718 38.0367 248.665 37.9 248.598 37.7C248.532 37.5 248.495 37.35 248.488 37.25C248.455 36.59 248.418 35.4467 248.378 33.82H247.678L247.708 33.25C247.862 33.1433 248.045 33.0467 248.258 32.96L249.068 31.68C249.328 31.7067 249.532 31.7767 249.678 31.89L249.668 32.84C250.088 32.8533 250.478 32.8933 250.838 32.96C250.838 33.2267 250.755 33.5133 250.588 33.82H249.658C249.632 35.22 249.615 36.27 249.608 36.97C249.875 36.9967 250.238 37.0733 250.698 37.2L250.688 37.72C250.575 37.7933 250.322 37.88 249.928 37.98C249.542 38.0733 249.225 38.12 248.978 38.12Z" fill="#000429"/>
<defs>
<linearGradient id="paint0_linear_144_37" x1="0" y1="20" x2="270" y2="20" gradientUnits="userSpaceOnUse">
<stop stop-color="#FF48AB"/>
<stop offset="1" stop-color="#DE7CE7"/>
</linearGradient>
<linearGradient id="paint1_linear_144_37" x1="0" y1="20" x2="270" y2="20" gradientUnits="userSpaceOnUse">
<stop stop-color="#FF48AB"/>
<stop offset="1" stop-color="#DE7CE7"/>
</linearGradient>
<linearGradient id="paint2_linear_144_37" x1="0" y1="20" x2="270" y2="20" gradientUnits="userSpaceOnUse">
<stop stop-color="#FF48AB"/>
<stop offset="1" stop-color="#DE7CE7"/>
</linearGradient>
</defs>
</svg>
