<svg width="877" height="452" viewBox="0 0 877 452" fill="none" xmlns="http://www.w3.org/2000/svg">
<path d="M859.477 43.5015L876 50.4498V418.246H833.384H832.983L832.693 418.523L815.848 434.623H734.468H734.134L733.868 434.824L712.326 451H158.463L138.488 434.846L138.213 434.623H137.859H57.3527L45.191 418.641L44.8909 418.246H44.3952H1V46.4666L18.3696 37.5742L18.9139 37.2955V36.6841V22.1601L35.5938 11.3196L35.7061 11.2467L35.7952 11.1467L44.8433 1H259.041L284.483 19.156L284.744 19.342H285.064H556.887H557.216L557.48 19.1474L582.139 1H844.642L854.473 11.1759L854.552 11.2577L854.647 11.3196L870.976 21.9323L859.005 42.0687L858.418 43.0562L859.477 43.5015Z" fill="#10022A" stroke="url(#paint0_linear_185_6)" stroke-width="2"/>
<defs>
<linearGradient id="paint0_linear_185_6" x1="436.163" y1="-4.49989e-07" x2="436.163" y2="452" gradientUnits="userSpaceOnUse">
<stop stop-color="#DE7CE7"/>
<stop offset="1" stop-color="#FF48AB"/>
</linearGradient>
</defs>
</svg>
