<svg width="141" height="32" viewBox="0 0 141 32" fill="none" xmlns="http://www.w3.org/2000/svg">
<rect width="141" height="31.5789" fill="url(#paint0_linear_185_62)"/>
<path d="M19.8444 6.81579H20.0122L20.1459 6.71466L28.3677 0.5H140.5V17.1725L135.298 22.7895H94.5222H94.2388L94.0932 23.0327L89.2776 31.0789H0.5V14.0139L7.26622 6.81579H19.8444Z" fill="#000429" stroke="url(#paint1_linear_185_62)"/>
<path d="M19.8444 6.81579H20.0122L20.1459 6.71466L28.3677 0.5H140.5V17.2223L134.892 26L97.2414 26H97.091L96.9656 26.0829L89.4107 31.0789H0.5V14.0139L7.26622 6.81579H19.8444Z" fill="#000429" stroke="url(#paint2_linear_185_62)"/>
<defs>
<linearGradient id="paint0_linear_185_62" x1="0" y1="15.7895" x2="141" y2="15.7895" gradientUnits="userSpaceOnUse">
<stop stop-color="#FF48AB"/>
<stop offset="1" stop-color="#DE7CE7"/>
</linearGradient>
<linearGradient id="paint1_linear_185_62" x1="0" y1="15.7895" x2="141" y2="15.7895" gradientUnits="userSpaceOnUse">
<stop stop-color="#FF48AB"/>
<stop offset="1" stop-color="#DE7CE7"/>
</linearGradient>
<linearGradient id="paint2_linear_185_62" x1="0" y1="15.7895" x2="141" y2="15.7895" gradientUnits="userSpaceOnUse">
<stop stop-color="#FF48AB"/>
<stop offset="1" stop-color="#DE7CE7"/>
</linearGradient>
</defs>
</svg>
