<svg width="216" height="24" viewBox="0 0 216 24" fill="none" xmlns="http://www.w3.org/2000/svg">
<path d="M5.464 11.904C5.176 12 4.944 12.048 4.768 12.048L4.12 18.096L1.72 18.336L0.352 2.88C1.2 2.608 2.32 2.36 3.712 2.136C5.12 1.912 6.464 1.8 7.744 1.8C9.792 1.8 11.432 2.184 12.664 2.952C12.952 3.816 13.096 4.608 13.096 5.328C13.096 7.344 11.936 9.008 9.616 10.32L13.648 17.976L11.968 18.912L5.464 11.904ZM8.464 5.976C8.464 4.84 7.96 3.968 6.952 3.36C6.568 3.36 6.136 3.44 5.656 3.6L4.936 10.512C6.04 10.016 6.904 9.352 7.528 8.52C8.152 7.672 8.464 6.824 8.464 5.976ZM20.5396 5.064C24.4116 6.616 26.3476 8.544 26.3476 10.848C26.3476 12.048 26.0036 12.92 25.3156 13.464C24.6436 13.992 23.3876 14.256 21.5476 14.256C20.3796 14.256 19.4196 14.168 18.6676 13.992C18.3636 14.744 18.2116 15.528 18.2116 16.344C18.9316 16.44 19.7476 16.488 20.6596 16.488C22.3236 16.488 23.8916 16.224 25.3636 15.696L26.0836 18.024C24.9156 18.392 23.6036 18.576 22.1476 18.576C19.5556 18.576 17.6516 18.104 16.4356 17.16C16.1796 16.024 16.0516 14.952 16.0516 13.944C16.0516 11.928 16.4916 10.112 17.3716 8.496C18.2676 6.88 19.3236 5.736 20.5396 5.064ZM19.1476 12.864C19.3556 12.88 19.8756 12.888 20.7076 12.888C21.5556 12.888 22.5236 12.776 23.6116 12.552C23.6596 12.248 23.6836 11.944 23.6836 11.64C23.6836 10.68 23.4196 9.76 22.8916 8.88C21.3076 9.936 20.0596 11.264 19.1476 12.864ZM35.5919 7.512C34.9999 7.512 34.4959 7.624 34.0799 7.848C33.8559 8.936 33.7439 10.064 33.7439 11.232C33.7439 12.4 33.7919 13.432 33.8879 14.328C33.9839 15.208 34.0959 15.808 34.2239 16.128C34.9919 15.984 35.8079 15.464 36.6719 14.568C37.1359 14.088 37.5119 13.4 37.7999 12.504C38.1039 11.592 38.2559 10.56 38.2559 9.408C38.2559 9.216 38.2399 8.864 38.2079 8.352C37.4719 7.792 36.5999 7.512 35.5919 7.512ZM37.3439 23.28C35.7439 23.28 34.0959 22.72 32.3999 21.6L33.0719 20.4C34.4959 21.024 35.6719 21.336 36.5999 21.336C37.5439 21.336 38.2319 21.088 38.6639 20.592C39.1119 20.096 39.3359 19.432 39.3359 18.6C39.3359 18.344 39.1679 16.576 38.8319 13.296H38.6399C37.4559 16.48 35.4399 18.072 32.5919 18.072C32.2079 18.072 31.8879 18.008 31.6319 17.88C31.0399 17.288 30.5599 16.424 30.1919 15.288C29.8399 14.136 29.6639 12.848 29.6639 11.424C29.6639 9.584 30.0319 8.24 30.7679 7.392C31.5199 6.528 32.8159 6.096 34.6559 6.096C35.9999 6.096 37.1599 6.416 38.1359 7.056L38.6639 6.36L43.2719 5.664L41.6159 19.08C41.4559 20.376 41.0079 21.4 40.2719 22.152C39.5359 22.904 38.5599 23.28 37.3439 23.28ZM47.8493 18.36L46.6253 6.48L51.7613 5.688L50.2253 18.144L47.8493 18.36ZM47.3693 3.816C46.9373 3.368 46.7213 2.84 46.7213 2.232C46.7213 1.624 46.9373 1.104 47.3693 0.671999C47.8173 0.223999 48.3453 -1.43051e-06 48.9533 -1.43051e-06C49.5613 -1.43051e-06 50.0813 0.223999 50.5133 0.671999C50.9613 1.104 51.1853 1.624 51.1853 2.232C51.1853 2.84 50.9613 3.368 50.5133 3.816C50.0813 4.248 49.5613 4.464 48.9533 4.464C48.3453 4.464 47.8173 4.248 47.3693 3.816ZM54.8697 10.104C54.8697 8.056 55.9497 6.184 58.1097 4.488L62.0457 7.128C60.2697 8.264 59.3817 9.456 59.3817 10.704C59.3817 11.36 59.7417 12.216 60.4617 13.272C61.1977 14.328 61.5657 15.152 61.5657 15.744C61.5657 17.84 60.1257 19.456 57.2457 20.592L56.1897 19.176C57.4537 18.488 58.0857 17.728 58.0857 16.896C58.0857 16.112 57.5497 15.12 56.4777 13.92C56.0777 13.472 55.7097 12.904 55.3737 12.216C55.0377 11.528 54.8697 10.824 54.8697 10.104ZM67.1084 18.36L66.0764 8.664L63.8684 8.976L63.7244 6.504L65.8364 6.408L65.4764 3.048L71.4524 2.256L70.9724 6.144L73.3484 6.024L73.2764 7.632L70.7324 7.992L69.4844 18.144L67.1084 18.36ZM78.9458 5.064C82.8178 6.616 84.7538 8.544 84.7538 10.848C84.7538 12.048 84.4098 12.92 83.7218 13.464C83.0498 13.992 81.7938 14.256 79.9538 14.256C78.7858 14.256 77.8258 14.168 77.0738 13.992C76.7698 14.744 76.6178 15.528 76.6178 16.344C77.3378 16.44 78.1538 16.488 79.0658 16.488C80.7298 16.488 82.2978 16.224 83.7698 15.696L84.4898 18.024C83.3218 18.392 82.0098 18.576 80.5538 18.576C77.9618 18.576 76.0578 18.104 74.8418 17.16C74.5858 16.024 74.4578 14.952 74.4578 13.944C74.4578 11.928 74.8978 10.112 75.7778 8.496C76.6738 6.88 77.7298 5.736 78.9458 5.064ZM77.5538 12.864C77.7618 12.88 78.2818 12.888 79.1138 12.888C79.9618 12.888 80.9298 12.776 82.0178 12.552C82.0658 12.248 82.0898 11.944 82.0898 11.64C82.0898 10.68 81.8258 9.76 81.2978 8.88C79.7138 9.936 78.4658 11.264 77.5538 12.864ZM95.2701 10.104C94.1821 10.104 93.3581 10.488 92.7981 11.256C92.2381 12.008 91.8301 13.4 91.5741 15.432L91.2381 18.144L88.8621 18.36L87.6381 6.456L92.7741 5.664L92.2941 9.504H92.4621C93.7421 6.752 95.3741 5.288 97.3581 5.112L96.6861 10.224C96.0941 10.144 95.6221 10.104 95.2701 10.104ZM103.04 5.064C106.912 6.616 108.848 8.544 108.848 10.848C108.848 12.048 108.504 12.92 107.816 13.464C107.144 13.992 105.888 14.256 104.048 14.256C102.88 14.256 101.92 14.168 101.168 13.992C100.864 14.744 100.712 15.528 100.712 16.344C101.432 16.44 102.248 16.488 103.16 16.488C104.824 16.488 106.392 16.224 107.864 15.696L108.584 18.024C107.416 18.392 106.104 18.576 104.648 18.576C102.056 18.576 100.152 18.104 98.9356 17.16C98.6796 16.024 98.5516 14.952 98.5516 13.944C98.5516 11.928 98.9916 10.112 99.8716 8.496C100.768 6.88 101.824 5.736 103.04 5.064ZM101.648 12.864C101.856 12.88 102.376 12.888 103.208 12.888C104.056 12.888 105.024 12.776 106.112 12.552C106.16 12.248 106.184 11.944 106.184 11.64C106.184 10.68 105.92 9.76 105.392 8.88C103.808 9.936 102.56 11.264 101.648 12.864ZM115.092 18.552C114.708 18.552 114.388 18.488 114.132 18.36C113.54 17.752 113.06 16.848 112.692 15.648C112.34 14.448 112.164 13.112 112.164 11.64C112.164 9.736 112.532 8.336 113.268 7.44C114.02 6.544 115.316 6.096 117.156 6.096C118.292 6.096 119.42 6.32 120.54 6.768L120.18 1.608L125.316 0.816L123.78 18.144L121.404 18.36L121.092 14.232H120.9C119.668 17.112 117.732 18.552 115.092 18.552ZM118.092 7.536C117.5 7.536 116.996 7.648 116.58 7.872C116.356 9.024 116.244 10.216 116.244 11.448C116.244 14.008 116.404 15.728 116.724 16.608C117.508 16.48 118.332 15.928 119.196 14.952C119.644 14.44 120.012 13.712 120.3 12.768C120.604 11.824 120.756 10.744 120.756 9.528C120.756 9.288 120.74 8.912 120.708 8.4C119.988 7.824 119.116 7.536 118.092 7.536ZM139.883 5.064C143.755 6.616 145.691 8.544 145.691 10.848C145.691 12.048 145.347 12.92 144.659 13.464C143.987 13.992 142.731 14.256 140.891 14.256C139.723 14.256 138.763 14.168 138.011 13.992C137.707 14.744 137.555 15.528 137.555 16.344C138.275 16.44 139.091 16.488 140.003 16.488C141.667 16.488 143.235 16.224 144.707 15.696L145.427 18.024C144.259 18.392 142.947 18.576 141.491 18.576C138.899 18.576 136.995 18.104 135.779 17.16C135.523 16.024 135.395 14.952 135.395 13.944C135.395 11.928 135.835 10.112 136.715 8.496C137.611 6.88 138.667 5.736 139.883 5.064ZM138.491 12.864C138.699 12.88 139.219 12.888 140.051 12.888C140.899 12.888 141.867 12.776 142.955 12.552C143.003 12.248 143.027 11.944 143.027 11.64C143.027 10.68 142.763 9.76 142.235 8.88C140.651 9.936 139.403 11.264 138.491 12.864ZM152.872 5.688L154.456 14.88H154.648L157.744 5.76L159.688 6.288L155.008 18.048L153.064 18.36L147.736 6.48L152.872 5.688ZM166.086 5.064C169.958 6.616 171.894 8.544 171.894 10.848C171.894 12.048 171.55 12.92 170.862 13.464C170.19 13.992 168.934 14.256 167.094 14.256C165.926 14.256 164.966 14.168 164.214 13.992C163.91 14.744 163.758 15.528 163.758 16.344C164.478 16.44 165.294 16.488 166.206 16.488C167.87 16.488 169.438 16.224 170.91 15.696L171.63 18.024C170.462 18.392 169.15 18.576 167.694 18.576C165.102 18.576 163.198 18.104 161.982 17.16C161.726 16.024 161.598 14.952 161.598 13.944C161.598 11.928 162.038 10.112 162.918 8.496C163.814 6.88 164.87 5.736 166.086 5.064ZM164.694 12.864C164.902 12.88 165.422 12.888 166.254 12.888C167.102 12.888 168.07 12.776 169.158 12.552C169.206 12.248 169.23 11.944 169.23 11.64C169.23 10.68 168.966 9.76 168.438 8.88C166.854 9.936 165.606 11.264 164.694 12.864ZM184.331 5.448C184.635 5.448 184.931 5.496 185.219 5.592C186.035 6.584 186.595 8.304 186.899 10.752C187.203 13.184 187.355 15.6 187.355 18L183.035 18.36C183.035 14.68 182.899 11.328 182.627 8.304C180.499 9.088 179.083 12.368 178.379 18.144L176.003 18.36L174.779 6.456L179.915 5.664L179.387 9.888H179.603C180.243 8.496 180.971 7.408 181.787 6.624C182.603 5.84 183.451 5.448 184.331 5.448ZM192.687 18.36L191.655 8.664L189.447 8.976L189.303 6.504L191.415 6.408L191.055 3.048L197.031 2.256L196.551 6.144L198.927 6.024L198.855 7.632L196.311 7.992L195.062 18.144L192.687 18.36ZM200.838 10.104C200.838 8.056 201.918 6.184 204.078 4.488L208.014 7.128C206.238 8.264 205.35 9.456 205.35 10.704C205.35 11.36 205.71 12.216 206.43 13.272C207.166 14.328 207.534 15.152 207.534 15.744C207.534 17.84 206.094 19.456 203.214 20.592L202.158 19.176C203.422 18.488 204.054 17.728 204.054 16.896C204.054 16.112 203.518 15.12 202.446 13.92C202.046 13.472 201.678 12.904 201.342 12.216C201.006 11.528 200.838 10.824 200.838 10.104ZM211.253 9.648C210.901 9.248 210.725 8.736 210.725 8.112C210.725 7.488 210.901 6.984 211.253 6.6C211.621 6.2 212.189 6 212.957 6C213.725 6 214.285 6.2 214.637 6.6C215.005 6.984 215.189 7.488 215.189 8.112C215.189 8.736 215.005 9.248 214.637 9.648C214.285 10.032 213.725 10.224 212.957 10.224C212.189 10.224 211.621 10.032 211.253 9.648ZM211.181 17.664C210.829 17.264 210.653 16.752 210.653 16.128C210.653 15.504 210.829 15 211.181 14.616C211.549 14.216 212.117 14.016 212.885 14.016C213.653 14.016 214.213 14.216 214.565 14.616C214.933 15 215.117 15.504 215.117 16.128C215.117 16.752 214.933 17.264 214.565 17.664C214.213 18.048 213.653 18.24 212.885 18.24C212.117 18.24 211.549 18.048 211.181 17.664Z" fill="url(#paint0_linear_230_33)"/>
<defs>
<linearGradient id="paint0_linear_230_33" x1="-2" y1="10" x2="217" y2="10" gradientUnits="userSpaceOnUse">
<stop stop-color="#F529A3" stop-opacity="0.54"/>
<stop offset="1" stop-color="#DE7CE7" stop-opacity="0.72"/>
</linearGradient>
</defs>
</svg>
