<svg width="1276" height="79" viewBox="0 0 1276 79" fill="none" xmlns="http://www.w3.org/2000/svg">
<path d="M535 2H787.945L805.414 24.0745H822.483L833.555 32H873" stroke="#0A69A5" stroke-width="3"/>
<path d="M780 2H484.525L465.691 24.0745H444.807L431.26 32H383" stroke="#0A69A5" stroke-width="3"/>
<g filter="url(#filter0_b_527_5)">
<path d="M1 78.5L1276 79V25.5H1165.5H1148H1115.5H993.5H964.5H919.5H874V33.5H833.5L822.5 26H805L787 3.5H485.5L467 25H446.5L432 34H384L374 25H186.5H166H133.5H1V78.5Z" fill="black"/>
</g>
<path d="M370 24.0002H420.5H0.5" stroke="#0A69A5" stroke-width="3"/>
<path d="M840 24H1276" stroke="#0A69A5" stroke-width="3"/>
<defs>
<filter id="filter0_b_527_5" x="-44" y="-41.5" width="1365" height="165.5" filterUnits="userSpaceOnUse" color-interpolation-filters="sRGB">
<feFlood flood-opacity="0" result="BackgroundImageFix"/>
<feGaussianBlur in="BackgroundImageFix" stdDeviation="22.5"/>
<feComposite in2="SourceAlpha" operator="in" result="effect1_backgroundBlur_527_5"/>
<feBlend mode="normal" in="SourceGraphic" in2="effect1_backgroundBlur_527_5" result="shape"/>
</filter>
</defs>
</svg>
