<svg xmlns="http://www.w3.org/2000/svg" width="1276" height="79" fill="none"><path stroke="#0A69A5" stroke-width="3" d="M534.5 2h252.945l17.469 22.075h17.069L833.055 32H872.5"/><path stroke="#0A69A5" stroke-width="3" d="M779.5 2H484.025l-18.834 22.075h-20.884L430.76 32H382.5"/><g filter="url(#a)"><path fill="#fff" fill-opacity=".22" d="m.5 78.5 1275 .5V25.5h-402v8H833L822 26h-17.5l-18-22.5H485L466.5 25H446l-14.5 9h-48l-10-9H.5z"/><path stroke="#fff" stroke-opacity=".1" d="M133 25.5H1V78l1274 .5V26H874v8h-41.154l-.128-.087-10.872-7.413H804.26l-.15-.188L786.26 4H485.229l-18.35 21.326-.15.174h-20.586l-14.379 8.925-.121.075h-48.335l-.142-.128-9.858-8.872H133Z"/></g><path stroke="#0A69A5" stroke-width="3" d="M369.5 24H420 0M839.5 24h436"/><defs><filter id="a" width="1294.2" height="94.7" x="-9.1" y="-6.1" color-interpolation-filters="sRGB" filterUnits="userSpaceOnUse"><feFlood flood-opacity="0" result="BackgroundImageFix"/><feGaussianBlur in="BackgroundImageFix" stdDeviation="4.8"/><feComposite in2="SourceAlpha" operator="in" result="effect1_backgroundBlur_527_5"/><feBlend in="SourceGraphic" in2="effect1_backgroundBlur_527_5" result="shape"/></filter></defs></svg>