<svg width="1366" height="107" viewBox="0 0 1366 107" fill="none" xmlns="http://www.w3.org/2000/svg">
<path d="M432.852 18.3207H503.037L552.715 85.2911H678.092V92.3678H547.037L493.574 22.26H435.265L427.423 29.0983H419.28L432.852 18.3207Z" fill="url(#paint0_linear_465_6)"/>
<path d="M436.041 23.9599L492.155 23.9599L545.144 94.3335H678.565V101.803H540.886L481.991 29.3432L429.703 29.3432L436.041 23.9599Z" fill="url(#paint1_linear_465_6)"/>
<path d="M922.375 17.0034L850.308 17.0034L796.847 85.2911L670.996 85.2911L670.996 92.3678L800.159 92.3678L859.299 20.9529L919.997 20.9529L928.123 27.7358L936.417 27.6863L922.375 17.0034Z" fill="url(#paint2_linear_465_6)"/>
<path d="M918.771 22.5616L860.245 22.5616L801.105 94.3335L676.112 94.3335L676.112 101.803L807.255 102.196L866.249 28.2492L924.614 27.901L918.771 22.5616Z" fill="url(#paint3_linear_465_6)"/>
<path d="M3.13002 67.9129L213.385 67.614L223.991 58.7393L38.4652 59.0029L3.13002 11.3791L3.13002 67.9129Z" fill="url(#paint4_linear_465_6)"/>
<path d="M220.993 58.3318L400.176 59.4006L390.433 67.9925L231.937 67.9925L220.993 58.3318Z" fill="url(#paint5_linear_465_6)"/>
<path d="M421.251 34.0822L404.836 50.9273L403.513 49.5359L419.928 32.6908L421.251 34.0822Z" fill="white"/>
<path d="M75.8018 53.8392L343.296 53.8392L342.827 55.5689L75.3328 55.5689L75.8018 53.8392Z" fill="white"/>
<path d="M1363.46 70.7775L1153.2 70.4786L1142.6 61.6039L1328.12 61.8675L1363.46 10.5928L1363.46 70.7775Z" fill="url(#paint6_linear_465_6)"/>
<path d="M1145.59 61.1964L966.411 62.2652L976.154 70.8571L1134.65 70.8571L1145.59 61.1964Z" fill="url(#paint7_linear_465_6)"/>
<path d="M937.336 34.08L953.751 50.9251L955.074 49.5338L938.659 32.6887L937.336 34.08Z" fill="white"/>
<path d="M1290.79 56.7038L1023.29 56.7038L1023.76 58.4335L1291.25 58.4335L1290.79 56.7038Z" fill="white"/>
<defs>
<linearGradient id="paint0_linear_465_6" x1="426.82" y1="28.4153" x2="439.604" y2="86.8821" gradientUnits="userSpaceOnUse">
<stop stop-color="white"/>
<stop offset="0.315" stop-color="white"/>
<stop offset="0.635" stop-color="#B8B6B6"/>
<stop offset="0.835" stop-color="white"/>
</linearGradient>
<linearGradient id="paint1_linear_465_6" x1="496.628" y1="13.7873" x2="497.003" y2="50.1914" gradientUnits="userSpaceOnUse">
<stop offset="0.31" stop-color="#0A69A5"/>
<stop offset="0.5699" stop-color="#22EAEA"/>
<stop offset="0.705" stop-color="#22EAEA"/>
<stop offset="0.9999" stop-color="#0A69A5"/>
<stop offset="1" stop-color="#0A69A5"/>
</linearGradient>
<linearGradient id="paint2_linear_465_6" x1="929.82" y1="27.0499" x2="917.695" y2="85.468" gradientUnits="userSpaceOnUse">
<stop stop-color="white"/>
<stop offset="0.315" stop-color="white"/>
<stop offset="0.635" stop-color="#B8B6B6"/>
<stop offset="0.835" stop-color="white"/>
</linearGradient>
<linearGradient id="paint3_linear_465_6" x1="837.637" y1="12.8902" x2="837.44" y2="49.2272" gradientUnits="userSpaceOnUse">
<stop offset="0.31" stop-color="#0A69A5"/>
<stop offset="0.5699" stop-color="#22EAEA"/>
<stop offset="0.705" stop-color="#22EAEA"/>
<stop offset="0.9999" stop-color="#0A69A5"/>
<stop offset="1" stop-color="#0A69A5"/>
</linearGradient>
<linearGradient id="paint4_linear_465_6" x1="126.938" y1="69.0006" x2="127.13" y2="31.4853" gradientUnits="userSpaceOnUse">
<stop stop-color="#0A69A5"/>
<stop offset="0.35" stop-color="#22EAEA"/>
<stop offset="0.475" stop-color="#22EAEA"/>
<stop offset="0.82" stop-color="#0A69A5"/>
<stop offset="1" stop-color="#0A69A5"/>
</linearGradient>
<linearGradient id="paint5_linear_465_6" x1="286.038" y1="55.8013" x2="286.02" y2="66.9856" gradientUnits="userSpaceOnUse">
<stop stop-color="#0A69A5"/>
<stop offset="0.585" stop-color="#22EAEA"/>
<stop offset="1" stop-color="#0A69A5"/>
</linearGradient>
<linearGradient id="paint6_linear_465_6" x1="1239.65" y1="71.8652" x2="1239.46" y2="34.3499" gradientUnits="userSpaceOnUse">
<stop stop-color="#0A69A5"/>
<stop offset="0.35" stop-color="#22EAEA"/>
<stop offset="0.475" stop-color="#22EAEA"/>
<stop offset="0.82" stop-color="#0A69A5"/>
<stop offset="1" stop-color="#0A69A5"/>
</linearGradient>
<linearGradient id="paint7_linear_465_6" x1="1080.55" y1="58.6659" x2="1080.57" y2="69.8502" gradientUnits="userSpaceOnUse">
<stop stop-color="#0A69A5"/>
<stop offset="0.585" stop-color="#22EAEA"/>
<stop offset="1" stop-color="#0A69A5"/>
</linearGradient>
</defs>
</svg>
