<svg width="115" height="29" viewBox="0 0 115 29" fill="none" xmlns="http://www.w3.org/2000/svg">
<g filter="url(#filter0_d_35_27)">
<path d="M17 10H27L20.5 19H10L17 10Z" fill="#EC5BF9" fill-opacity="0.57"/>
<path d="M30 10H40L33.5 19H23L30 10Z" fill="#EC5BF9" fill-opacity="0.57"/>
<path d="M43 10H53L46.5 19H36L43 10Z" fill="#EC5BF9" fill-opacity="0.57"/>
<path d="M56 10H66L59.5 19H49L56 10Z" fill="#EC5BF9" fill-opacity="0.57"/>
<path d="M69 10H79L72.5 19H62L69 10Z" fill="#EC5BF9" fill-opacity="0.57"/>
<path d="M82 10H92L85.5 19H75L82 10Z" fill="#EC5BF9" fill-opacity="0.57"/>
<path d="M95 10H105L98.5 19H88L95 10Z" fill="#EC5BF9" fill-opacity="0.57"/>
</g>
<defs>
<filter id="filter0_d_35_27" x="0" y="0" width="115" height="29" filterUnits="userSpaceOnUse" color-interpolation-filters="sRGB">
<feFlood flood-opacity="0" result="BackgroundImageFix"/>
<feColorMatrix in="SourceAlpha" type="matrix" values="0 0 0 0 0 0 0 0 0 0 0 0 0 0 0 0 0 0 127 0" result="hardAlpha"/>
<feOffset/>
<feGaussianBlur stdDeviation="5"/>
<feComposite in2="hardAlpha" operator="out"/>
<feColorMatrix type="matrix" values="0 0 0 0 0.926326 0 0 0 0 0.356993 0 0 0 0 0.975833 0 0 0 0.59 0"/>
<feBlend mode="normal" in2="BackgroundImageFix" result="effect1_dropShadow_35_27"/>
<feBlend mode="normal" in="SourceGraphic" in2="effect1_dropShadow_35_27" result="shape"/>
</filter>
</defs>
</svg>
