<svg width="490" height="60" viewBox="0 0 490 60" fill="none" xmlns="http://www.w3.org/2000/svg">
<rect width="476" height="55.2381" fill="url(#paint0_linear_144_61)"/>
<path d="M66.9926 11.5476H67.087L67.1749 11.5132L95.2944 0.5H475.5V30.0878L457.359 40.2381H319.096H318.91L318.769 40.3601L302.162 54.7381H0.5V24.462L23.9287 11.5476H66.9926Z" fill="#000429" stroke="url(#paint1_linear_144_61)"/>
<path d="M66.9926 11.5476H67.087L67.1749 11.5132L95.2944 0.5H475.5V30.0878L457.359 40.2381H319.096H318.91L318.769 40.3601L302.162 54.7381H0.5V24.462L23.9287 11.5476H66.9926Z" fill="#000429" stroke="url(#paint2_linear_144_61)"/>
<path d="M363.747 42.043L363.76 42.173C363.76 42.5283 363.704 42.8317 363.591 43.083C363.478 43.1697 363.301 43.239 363.058 43.291L365.229 49.713L366.464 49.869C366.464 50.2243 366.364 50.6013 366.165 51H363.006L362.889 50.285C363.253 50.1463 363.491 50.0553 363.604 50.012L363.084 48.543H360.159C359.899 49.3143 359.76 49.7173 359.743 49.752L360.64 49.869C360.64 50.051 360.605 50.2633 360.536 50.506C360.467 50.74 360.402 50.9047 360.341 51H357.182L357.065 50.285C357.455 50.1203 357.806 49.999 358.118 49.921L360.302 43.239C359.721 43.1523 359.284 43.0397 358.989 42.901C358.989 42.6497 359.028 42.4287 359.106 42.238C359.288 42.1773 359.713 42.108 360.38 42.03C361.056 41.9433 361.697 41.9 362.304 41.9C362.919 41.9 363.4 41.9477 363.747 42.043ZM362.07 45.618L361.693 43.902H361.563L361.147 45.696L360.536 47.321H362.707L362.07 45.618ZM377.777 41.341C377.942 41.341 378.046 41.3453 378.089 41.354C378.089 41.8047 378.033 42.199 377.92 42.537C377.886 43.473 377.842 44.8077 377.79 46.541C377.747 48.2657 377.717 49.4053 377.699 49.96C378.211 50.0293 378.592 50.103 378.843 50.181V50.805C378.297 51.039 377.548 51.156 376.594 51.156C376.542 51.0607 376.473 50.8267 376.386 50.454C375.589 50.8873 375.013 51.1213 374.657 51.156C373.773 51.156 373.11 50.8353 372.668 50.194C372.235 49.5527 372.018 48.7293 372.018 47.724C372.018 46.71 372.239 45.8607 372.681 45.176C373.123 44.4827 373.778 44.136 374.644 44.136C375.121 44.136 375.624 44.2833 376.152 44.578L376.087 42.68C375.68 42.6367 375.338 42.5717 375.06 42.485C375.06 42.2683 375.091 41.9563 375.151 41.549C375.663 41.4103 376.538 41.341 377.777 41.341ZM374.852 45.41C374.107 45.41 373.734 46.1293 373.734 47.568C373.734 48.3913 373.882 49.011 374.176 49.427C374.341 49.6697 374.553 49.791 374.813 49.791C375.255 49.791 375.754 49.6393 376.308 49.336L376.191 45.982C375.697 45.6007 375.251 45.41 374.852 45.41ZM390.068 41.341C390.233 41.341 390.337 41.3453 390.38 41.354C390.38 41.8047 390.324 42.199 390.211 42.537C390.176 43.473 390.133 44.8077 390.081 46.541C390.038 48.2657 390.007 49.4053 389.99 49.96C390.501 50.0293 390.883 50.103 391.134 50.181V50.805C390.588 51.039 389.838 51.156 388.885 51.156C388.833 51.0607 388.764 50.8267 388.677 50.454C387.88 50.8873 387.303 51.1213 386.948 51.156C386.064 51.156 385.401 50.8353 384.959 50.194C384.526 49.5527 384.309 48.7293 384.309 47.724C384.309 46.71 384.53 45.8607 384.972 45.176C385.414 44.4827 386.068 44.136 386.935 44.136C387.412 44.136 387.914 44.2833 388.443 44.578L388.378 42.68C387.971 42.6367 387.628 42.5717 387.351 42.485C387.351 42.2683 387.381 41.9563 387.442 41.549C387.953 41.4103 388.829 41.341 390.068 41.341ZM387.143 45.41C386.398 45.41 386.025 46.1293 386.025 47.568C386.025 48.3913 386.172 49.011 386.467 49.427C386.632 49.6697 386.844 49.791 387.104 49.791C387.546 49.791 388.044 49.6393 388.599 49.336L388.482 45.982C387.988 45.6007 387.542 45.41 387.143 45.41ZM400.37 45.644C400.352 45.6007 400.266 45.579 400.11 45.579C399.954 45.579 399.685 45.696 399.304 45.93C399.269 47.6287 399.247 48.9027 399.239 49.752L400.253 49.882C400.253 50.2547 400.153 50.6273 399.954 51H396.717L396.6 50.285C397.137 50.0857 397.527 49.9557 397.77 49.895L397.627 45.683C397.176 45.6483 396.799 45.5833 396.496 45.488L396.587 44.552C396.821 44.448 397.666 44.3787 399.122 44.344C399.2 44.422 399.239 44.5737 399.239 44.799C400.001 44.4263 400.482 44.24 400.682 44.24C400.89 44.24 401.141 44.292 401.436 44.396C401.739 44.4913 401.969 44.5953 402.125 44.708V44.929C402.125 45.6397 402.038 46.2983 401.865 46.905C401.717 46.9657 401.522 46.996 401.28 46.996C401.037 46.996 400.812 46.983 400.604 46.957C400.578 46.8443 400.5 46.4067 400.37 45.644ZM410.772 49.882C411.067 49.882 411.665 49.6783 412.566 49.271C412.757 49.5483 412.9 49.869 412.995 50.233C412.519 50.5277 412.051 50.7573 411.591 50.922C411.141 51.078 410.82 51.156 410.629 51.156C409.581 51.156 408.783 50.8657 408.237 50.285C407.7 49.7043 407.431 48.881 407.431 47.815C407.431 46.7403 407.7 45.878 408.237 45.228C408.775 44.5693 409.572 44.24 410.629 44.24C411.47 44.24 412.111 44.513 412.553 45.059C412.995 45.605 413.216 46.3157 413.216 47.191C413.216 47.373 413.112 47.581 412.904 47.815L409.16 47.75C409.178 48.4433 409.308 48.972 409.55 49.336C409.793 49.7 410.2 49.882 410.772 49.882ZM410.512 45.319C410.183 45.319 409.875 45.384 409.589 45.514C409.39 45.93 409.264 46.3157 409.212 46.671C409.888 46.645 410.655 46.6277 411.513 46.619C411.47 45.7523 411.136 45.319 410.512 45.319ZM423.691 44.799L423.704 45.202C423.704 45.878 423.652 46.32 423.548 46.528C423.262 46.632 422.863 46.684 422.352 46.684L421.936 45.371C421.823 45.3277 421.667 45.306 421.468 45.306C421.268 45.306 421.104 45.3667 420.974 45.488C420.852 45.6093 420.792 45.7523 420.792 45.917C420.792 46.0817 420.857 46.2333 420.987 46.372C421.117 46.502 421.251 46.606 421.39 46.684C421.528 46.762 421.728 46.866 421.988 46.996C422.256 47.1173 422.456 47.2127 422.586 47.282C422.724 47.3513 422.898 47.4553 423.106 47.594C423.322 47.7327 423.487 47.8627 423.6 47.984C423.877 48.3133 424.016 48.673 424.016 49.063C424.016 49.7303 423.76 50.246 423.249 50.61C422.746 50.974 422.126 51.156 421.39 51.156C421 51.156 420.571 51.0867 420.103 50.948C419.643 50.8093 419.253 50.623 418.933 50.389C418.933 49.765 418.993 49.1843 419.115 48.647C419.461 48.6037 419.743 48.582 419.96 48.582C420.176 48.582 420.324 48.5863 420.402 48.595L420.558 49.856C420.774 49.934 421.034 49.973 421.338 49.973C421.641 49.973 421.879 49.9123 422.053 49.791C422.235 49.6697 422.326 49.5007 422.326 49.284C422.326 49.0587 422.226 48.8723 422.027 48.725C421.827 48.5777 421.554 48.426 421.208 48.27C420.861 48.1053 420.592 47.971 420.402 47.867C420.211 47.7543 420.007 47.6113 419.791 47.438C419.349 47.1 419.128 46.684 419.128 46.19C419.128 45.5747 419.34 45.098 419.765 44.76C420.198 44.4133 420.779 44.24 421.507 44.24C422.235 44.24 422.963 44.4263 423.691 44.799ZM434.509 44.799L434.522 45.202C434.522 45.878 434.47 46.32 434.366 46.528C434.08 46.632 433.681 46.684 433.17 46.684L432.754 45.371C432.641 45.3277 432.485 45.306 432.286 45.306C432.086 45.306 431.922 45.3667 431.792 45.488C431.67 45.6093 431.61 45.7523 431.61 45.917C431.61 46.0817 431.675 46.2333 431.805 46.372C431.935 46.502 432.069 46.606 432.208 46.684C432.346 46.762 432.546 46.866 432.806 46.996C433.074 47.1173 433.274 47.2127 433.404 47.282C433.542 47.3513 433.716 47.4553 433.924 47.594C434.14 47.7327 434.305 47.8627 434.418 47.984C434.695 48.3133 434.834 48.673 434.834 49.063C434.834 49.7303 434.578 50.246 434.067 50.61C433.564 50.974 432.944 51.156 432.208 51.156C431.818 51.156 431.389 51.0867 430.921 50.948C430.461 50.8093 430.071 50.623 429.751 50.389C429.751 49.765 429.811 49.1843 429.933 48.647C430.279 48.6037 430.561 48.582 430.778 48.582C430.994 48.582 431.142 48.5863 431.22 48.595L431.376 49.856C431.592 49.934 431.852 49.973 432.156 49.973C432.459 49.973 432.697 49.9123 432.871 49.791C433.053 49.6697 433.144 49.5007 433.144 49.284C433.144 49.0587 433.044 48.8723 432.845 48.725C432.645 48.5777 432.372 48.426 432.026 48.27C431.679 48.1053 431.41 47.971 431.22 47.867C431.029 47.7543 430.825 47.6113 430.609 47.438C430.167 47.1 429.946 46.684 429.946 46.19C429.946 45.5747 430.158 45.098 430.583 44.76C431.016 44.4133 431.597 44.24 432.325 44.24C433.053 44.24 433.781 44.4263 434.509 44.799Z" fill="#10022A"/>
<defs>
<linearGradient id="paint0_linear_144_61" x1="0" y1="27.619" x2="476" y2="27.619" gradientUnits="userSpaceOnUse">
<stop stop-color="#FF48AB"/>
<stop offset="1" stop-color="#DE7CE7"/>
</linearGradient>
<linearGradient id="paint1_linear_144_61" x1="0" y1="27.619" x2="476" y2="27.619" gradientUnits="userSpaceOnUse">
<stop stop-color="#FF48AB"/>
<stop offset="1" stop-color="#DE7CE7"/>
</linearGradient>
<linearGradient id="paint2_linear_144_61" x1="0" y1="27.619" x2="476" y2="27.619" gradientUnits="userSpaceOnUse">
<stop stop-color="#FF48AB"/>
<stop offset="1" stop-color="#DE7CE7"/>
</linearGradient>
</defs>
</svg>
