<svg width="270" height="42" viewBox="0 0 270 42" fill="none" xmlns="http://www.w3.org/2000/svg">
<rect x="270" y="42" width="270" height="40" transform="rotate(180 270 42)" fill="url(#paint0_linear_144_25)"/>
<path d="M232 33.5H231.882L231.776 33.5528L215.882 41.5H0.5V20.2573L10.6602 13H89H89.2219L89.3708 12.8355L98.7219 2.5H269.5V24.2405L256.342 33.5H232Z" fill="#000429" stroke="url(#paint1_linear_144_25)"/>
<path d="M232 33.5H231.882L231.776 33.5528L215.882 41.5H0.5V20.2573L10.6602 13H89H89.2219L89.3708 12.8355L98.7219 2.5H269.5V24.2405L256.342 33.5H232Z" fill="#000429" stroke="url(#paint2_linear_144_25)"/>
<path d="M27.49 5C27.49 5.76 27.4833 6.41333 27.47 6.96H28.49L28.59 6.27C28.93 6.27 29.26 6.35333 29.58 6.52V8.52L28.92 8.55C28.76 8.31 28.6667 8.1 28.64 7.92L27.46 7.92C27.4467 8.85333 27.44 9.55667 27.44 10.03H29.15L29.37 9.16C29.7833 9.16 30.0967 9.18 30.31 9.22C30.41 9.6 30.46 9.94667 30.46 10.26C30.46 10.5667 30.45 10.8133 30.43 11H25.47L25.38 10.45C25.8133 10.2833 26.0933 10.1867 26.22 10.16C26.2133 9.76667 26.2067 9.21333 26.2 8.5C26.1733 6.9 26.15 5.69 26.13 4.87L25.3 4.61L25.38 4L30.29 4C30.31 4.18 30.32 4.40667 30.32 4.68C30.32 4.94667 30.27 5.32 30.17 5.8C29.9633 5.86667 29.65 5.9 29.23 5.9L29 5L27.49 5ZM42.0973 8.11C42.0839 7.64333 42.0273 7.32 41.9273 7.14C41.8339 6.96 41.6139 6.87 41.2673 6.87C40.9273 6.87 40.6106 6.94333 40.3173 7.09C40.3173 7.94333 40.2739 8.92667 40.1873 10.04L40.9773 10.13C40.9773 10.4033 40.9006 10.6933 40.7473 11H38.2573L38.1673 10.45C38.5139 10.3233 38.8173 10.2233 39.0773 10.15L38.9973 8.07C38.9839 7.63667 38.9306 7.33 38.8373 7.15C38.7506 6.96333 38.5806 6.87 38.3273 6.87C38.1939 6.87 38.0006 6.89333 37.7473 6.94C37.4939 6.98667 37.3006 7.03667 37.1673 7.09C37.1673 7.11 37.1373 8.09333 37.0773 10.04L37.8573 10.13C37.8573 10.4233 37.7806 10.7133 37.6273 11H35.1373L35.0473 10.45C35.4406 10.2967 35.7406 10.1967 35.9473 10.15L35.8173 6.92C35.5439 6.89333 35.2806 6.84333 35.0273 6.77L35.0773 6.05C35.1906 6.01667 35.4339 5.97667 35.8073 5.93C36.1806 5.88333 36.4639 5.86 36.6573 5.86C36.6839 5.88 36.7339 5.94333 36.8073 6.05C36.8806 6.15 36.9306 6.23 36.9573 6.29C37.1839 6.17667 37.4573 6.06667 37.7773 5.96C38.1039 5.85333 38.3039 5.8 38.3773 5.8C39.0839 5.8 39.6006 5.98333 39.9273 6.35C40.1806 6.21667 40.4873 6.09333 40.8473 5.98C41.2073 5.86 41.4306 5.8 41.5173 5.8C42.1506 5.8 42.6239 5.95 42.9373 6.25C43.2506 6.55 43.4073 7.05 43.4073 7.75C43.4073 8.13667 43.3773 8.9 43.3173 10.04L44.0973 10.13C44.0973 10.4233 44.0206 10.7133 43.8673 11H41.3873L41.2973 10.45C41.6106 10.3233 41.8973 10.2233 42.1573 10.15C42.1506 9.99667 42.1439 9.78 42.1373 9.5C42.1239 9.04 42.1106 8.57667 42.0973 8.11ZM50.0146 11.12C49.4479 11.12 49.0079 11.0033 48.6946 10.77C48.3879 10.5367 48.2346 10.1433 48.2346 9.59C48.2346 9.06333 48.4179 8.63333 48.7846 8.3C48.9979 8.10667 49.2946 7.99333 49.6746 7.96C50.0546 7.92667 50.5779 7.91 51.2446 7.91V7.75C51.2446 7.34333 51.1779 7.04667 51.0446 6.86C50.9179 6.66667 50.6913 6.57 50.3646 6.57C50.1979 6.57 50.0479 6.60333 49.9146 6.67L49.6746 7.54L48.9346 7.52C48.7679 7.26667 48.6779 6.86333 48.6646 6.31C48.7979 6.24333 49.1113 6.14333 49.6046 6.01C50.0979 5.87 50.4146 5.8 50.5546 5.8C51.2746 5.8 51.7979 5.95 52.1246 6.25C52.4513 6.54333 52.6146 7.01333 52.6146 7.66C52.6146 8.3 52.5846 9.14667 52.5246 10.2C52.9046 10.2333 53.1979 10.29 53.4046 10.37C53.4113 10.45 53.4146 10.5467 53.4146 10.66L53.4046 10.88C52.9246 11.04 52.4413 11.12 51.9546 11.12C51.8279 11.12 51.7346 11.1167 51.6746 11.11C51.5746 10.91 51.5146 10.67 51.4946 10.39H51.4446C51.3179 10.51 51.0946 10.6633 50.7746 10.85C50.4613 11.03 50.2079 11.12 50.0146 11.12ZM49.5146 9.65C49.5146 9.87 49.5813 10.0333 49.7146 10.14C49.8546 10.24 50.0113 10.29 50.1846 10.29C50.3579 10.29 50.5646 10.2133 50.8046 10.06C51.0446 9.9 51.2379 9.75667 51.3846 9.63L51.3346 8.71C50.8079 8.73667 50.4113 8.78667 50.1446 8.86C49.7246 8.94667 49.5146 9.21 49.5146 9.65ZM59.4052 5.88C59.5319 5.88 59.6119 5.88333 59.6452 5.89C59.6452 6.21667 59.5886 6.52 59.4752 6.8C59.4486 8.24 59.4319 9.32 59.4252 10.04L60.2052 10.13C60.2052 10.4033 60.1286 10.6933 59.9752 11H57.4852L57.3952 10.45C57.8086 10.2967 58.1086 10.1967 58.2952 10.15L58.1852 6.91C57.7919 6.87 57.5019 6.82 57.3152 6.76C57.3152 6.59333 57.3386 6.35333 57.3852 6.04C57.7786 5.93333 58.4519 5.88 59.4052 5.88ZM59.4052 3.99C59.4652 4.29 59.4952 4.52 59.4952 4.68C59.4952 4.83333 59.4819 5.00667 59.4552 5.2C59.1886 5.26 58.9619 5.29 58.7752 5.29C58.5952 5.29 58.3752 5.28 58.1152 5.26C58.0552 4.96 58.0252 4.73333 58.0252 4.58C58.0252 4.42 58.0386 4.24333 58.0652 4.05C58.3319 3.99 58.5552 3.96 58.7352 3.96C58.9219 3.96 59.1452 3.97 59.4052 3.99ZM66.1714 3.57C66.2981 3.57 66.3781 3.57333 66.4114 3.58C66.4114 3.92667 66.3681 4.23 66.2814 4.49C66.2747 4.90333 66.2647 5.48667 66.2514 6.24C66.2247 7.89333 66.2047 9.16 66.1914 10.04L66.9714 10.13C66.9714 10.4033 66.8947 10.6933 66.7414 11H64.2514L64.1614 10.45C64.5747 10.2967 64.8747 10.1967 65.0614 10.15L64.8714 4.6C64.5581 4.56667 64.2947 4.51667 64.0814 4.45C64.0814 4.20333 64.1047 3.96333 64.1514 3.73C64.5447 3.62333 65.2181 3.57 66.1714 3.57Z" fill="#000429"/>
<defs>
<linearGradient id="paint0_linear_144_25" x1="270" y1="62" x2="540" y2="62" gradientUnits="userSpaceOnUse">
<stop stop-color="#FF48AB"/>
<stop offset="1" stop-color="#DE7CE7"/>
</linearGradient>
<linearGradient id="paint1_linear_144_25" x1="270" y1="22" x2="0" y2="22" gradientUnits="userSpaceOnUse">
<stop stop-color="#FF48AB"/>
<stop offset="1" stop-color="#DE7CE7"/>
</linearGradient>
<linearGradient id="paint2_linear_144_25" x1="270" y1="22" x2="0" y2="22" gradientUnits="userSpaceOnUse">
<stop stop-color="#FF48AB"/>
<stop offset="1" stop-color="#DE7CE7"/>
</linearGradient>
</defs>
</svg>
