<svg width="270" height="42" viewBox="0 0 270 42" fill="none" xmlns="http://www.w3.org/2000/svg">
<rect width="270" height="40" fill="url(#paint0_linear_144_24)"/>
<path d="M38 8.5H38.118L38.2236 8.44721L54.118 0.5H269.5V21.7427L259.34 29H181H180.778L180.629 29.1645L171.278 39.5H0.5V17.7595L13.6583 8.5H38Z" fill="#000429" stroke="url(#paint1_linear_144_24)"/>
<path d="M38 8.5H38.118L38.2236 8.44721L54.118 0.5H269.5V21.7427L259.34 29H181H180.778L180.629 29.1645L171.278 39.5H0.5V17.7595L13.6583 8.5H38Z" fill="#000429" stroke="url(#paint2_linear_144_24)"/>
<path d="M191.74 34.37L191.7 31.87L190.87 31.61L190.95 31H193.55C193.543 31 193.543 31.0067 193.55 31.02C193.563 31.0333 193.577 31.0633 193.59 31.11C193.61 31.15 193.63 31.2 193.65 31.26C193.69 31.3667 193.717 31.5433 193.73 31.79C193.39 31.8433 193.167 31.8767 193.06 31.89L193.04 34.43C193.027 35.7033 192.793 36.6367 192.34 37.23C191.893 37.8233 191.127 38.12 190.04 38.12C188.953 38.12 188.197 37.8433 187.77 37.29C187.343 36.7367 187.123 35.8433 187.11 34.61C187.097 33.37 187.083 32.4567 187.07 31.87L186.24 31.61L186.32 31H188.92C188.913 31 188.913 31.0067 188.92 31.02C188.933 31.0333 188.947 31.0633 188.96 31.11C188.98 31.15 189 31.2 189.02 31.26C189.06 31.3667 189.087 31.5433 189.1 31.79C188.76 31.8433 188.537 31.8767 188.43 31.89L188.4 34.43C188.4 35.17 188.44 35.6967 188.52 36.01C188.6 36.3167 188.7 36.5333 188.82 36.66C189.08 36.9267 189.493 37.06 190.06 37.06C190.607 37.06 191.02 36.9067 191.3 36.6C191.527 36.3533 191.663 35.92 191.71 35.3C191.73 35.0533 191.74 34.7433 191.74 34.37ZM201.329 33.23L201.339 33.54C201.339 34.06 201.299 34.4 201.219 34.56C200.999 34.64 200.692 34.68 200.299 34.68L199.979 33.67C199.892 33.6367 199.772 33.62 199.619 33.62C199.466 33.62 199.339 33.6667 199.239 33.76C199.146 33.8533 199.099 33.9633 199.099 34.09C199.099 34.2167 199.149 34.3333 199.249 34.44C199.349 34.54 199.452 34.62 199.559 34.68C199.666 34.74 199.819 34.82 200.019 34.92C200.226 35.0133 200.379 35.0867 200.479 35.14C200.586 35.1933 200.719 35.2733 200.879 35.38C201.046 35.4867 201.172 35.5867 201.259 35.68C201.472 35.9333 201.579 36.21 201.579 36.51C201.579 37.0233 201.382 37.42 200.989 37.7C200.602 37.98 200.126 38.12 199.559 38.12C199.259 38.12 198.929 38.0667 198.569 37.96C198.216 37.8533 197.916 37.71 197.669 37.53C197.669 37.05 197.716 36.6033 197.809 36.19C198.076 36.1567 198.292 36.14 198.459 36.14C198.626 36.14 198.739 36.1433 198.799 36.15L198.919 37.12C199.086 37.18 199.286 37.21 199.519 37.21C199.752 37.21 199.936 37.1633 200.069 37.07C200.209 36.9767 200.279 36.8467 200.279 36.68C200.279 36.5067 200.202 36.3633 200.049 36.25C199.896 36.1367 199.686 36.02 199.419 35.9C199.152 35.7733 198.946 35.67 198.799 35.59C198.652 35.5033 198.496 35.3933 198.329 35.26C197.989 35 197.819 34.68 197.819 34.3C197.819 33.8267 197.982 33.46 198.309 33.2C198.642 32.9333 199.089 32.8 199.649 32.8C200.209 32.8 200.769 32.9433 201.329 33.23ZM208.631 37.14C208.857 37.14 209.317 36.9833 210.011 36.67C210.157 36.8833 210.267 37.13 210.341 37.41C209.974 37.6367 209.614 37.8133 209.261 37.94C208.914 38.06 208.667 38.12 208.521 38.12C207.714 38.12 207.101 37.8967 206.681 37.45C206.267 37.0033 206.061 36.37 206.061 35.55C206.061 34.7233 206.267 34.06 206.681 33.56C207.094 33.0533 207.707 32.8 208.521 32.8C209.167 32.8 209.661 33.01 210.001 33.43C210.341 33.85 210.511 34.3967 210.511 35.07C210.511 35.21 210.431 35.37 210.271 35.55L207.391 35.5C207.404 36.0333 207.504 36.44 207.691 36.72C207.877 37 208.191 37.14 208.631 37.14ZM208.431 33.63C208.177 33.63 207.941 33.68 207.721 33.78C207.567 34.1 207.471 34.3967 207.431 34.67C207.951 34.65 208.541 34.6367 209.201 34.63C209.167 33.9633 208.911 33.63 208.431 33.63ZM217.838 33.88C217.824 33.8467 217.758 33.83 217.638 33.83C217.518 33.83 217.311 33.92 217.018 34.1C216.991 35.4067 216.974 36.3867 216.968 37.04L217.748 37.14C217.748 37.4267 217.671 37.7133 217.518 38H215.028L214.938 37.45C215.351 37.2967 215.651 37.1967 215.838 37.15L215.728 33.91C215.381 33.8833 215.091 33.8333 214.858 33.76L214.928 33.04C215.108 32.96 215.758 32.9067 216.878 32.88C216.938 32.94 216.968 33.0567 216.968 33.23C217.554 32.9433 217.924 32.8 218.078 32.8C218.238 32.8 218.431 32.84 218.658 32.92C218.891 32.9933 219.068 33.0733 219.188 33.16V33.33C219.188 33.8767 219.121 34.3833 218.988 34.85C218.874 34.8967 218.724 34.92 218.538 34.92C218.351 34.92 218.178 34.91 218.018 34.89C217.998 34.8033 217.938 34.4667 217.838 33.88ZM226.51 32.8C227.177 32.8 227.66 32.9633 227.96 33.29C228.26 33.6167 228.41 34.0733 228.41 34.66C228.41 35.2467 228.377 36.04 228.31 37.04L229.1 37.13C229.1 37.4033 229.023 37.6933 228.87 38H226.38L226.29 37.45C226.603 37.3233 226.893 37.2233 227.16 37.15C227.14 36.3833 227.12 35.74 227.1 35.22C227.08 34.6933 227.03 34.3367 226.95 34.15C226.87 33.9633 226.693 33.87 226.42 33.87C226.007 33.87 225.637 33.9433 225.31 34.09C225.303 34.3767 225.283 34.8467 225.25 35.5C225.223 36.1467 225.207 36.66 225.2 37.04L225.98 37.13C225.98 37.4033 225.903 37.6933 225.75 38H223.26L223.17 37.45C223.503 37.3233 223.803 37.2233 224.07 37.15C224.063 36.75 224.04 36.1967 224 35.49C223.967 34.7833 223.947 34.26 223.94 33.92C223.693 33.8933 223.43 33.8433 223.15 33.77L223.2 33.05C223.667 32.9233 224.193 32.86 224.78 32.86C224.853 32.9067 224.953 33.05 225.08 33.29C225.307 33.1767 225.583 33.0667 225.91 32.96C226.237 32.8533 226.437 32.8 226.51 32.8ZM235.022 38.12C234.455 38.12 234.015 38.0033 233.702 37.77C233.395 37.5367 233.242 37.1433 233.242 36.59C233.242 36.0633 233.425 35.6333 233.792 35.3C234.005 35.1067 234.302 34.9933 234.682 34.96C235.062 34.9267 235.585 34.91 236.252 34.91V34.75C236.252 34.3433 236.185 34.0467 236.052 33.86C235.925 33.6667 235.699 33.57 235.372 33.57C235.205 33.57 235.055 33.6033 234.922 33.67L234.682 34.54L233.942 34.52C233.775 34.2667 233.685 33.8633 233.672 33.31C233.805 33.2433 234.119 33.1433 234.612 33.01C235.105 32.87 235.422 32.8 235.562 32.8C236.282 32.8 236.805 32.95 237.132 33.25C237.459 33.5433 237.622 34.0133 237.622 34.66C237.622 35.3 237.592 36.1467 237.532 37.2C237.912 37.2333 238.205 37.29 238.412 37.37C238.419 37.45 238.422 37.5467 238.422 37.66L238.412 37.88C237.932 38.04 237.449 38.12 236.962 38.12C236.835 38.12 236.742 38.1167 236.682 38.11C236.582 37.91 236.522 37.67 236.502 37.39H236.452C236.325 37.51 236.102 37.6633 235.782 37.85C235.469 38.03 235.215 38.12 235.022 38.12ZM234.522 36.65C234.522 36.87 234.589 37.0333 234.722 37.14C234.862 37.24 235.019 37.29 235.192 37.29C235.365 37.29 235.572 37.2133 235.812 37.06C236.052 36.9 236.245 36.7567 236.392 36.63L236.342 35.71C235.815 35.7367 235.419 35.7867 235.152 35.86C234.732 35.9467 234.522 36.21 234.522 36.65ZM249.373 35.11C249.359 34.6433 249.303 34.32 249.203 34.14C249.109 33.96 248.889 33.87 248.543 33.87C248.203 33.87 247.886 33.9433 247.593 34.09C247.593 34.9433 247.549 35.9267 247.463 37.04L248.253 37.13C248.253 37.4033 248.176 37.6933 248.023 38H245.533L245.443 37.45C245.789 37.3233 246.093 37.2233 246.353 37.15L246.273 35.07C246.259 34.6367 246.206 34.33 246.113 34.15C246.026 33.9633 245.856 33.87 245.603 33.87C245.469 33.87 245.276 33.8933 245.023 33.94C244.769 33.9867 244.576 34.0367 244.443 34.09C244.443 34.11 244.413 35.0933 244.353 37.04L245.133 37.13C245.133 37.4233 245.056 37.7133 244.903 38H242.413L242.323 37.45C242.716 37.2967 243.016 37.1967 243.223 37.15L243.093 33.92C242.819 33.8933 242.556 33.8433 242.303 33.77L242.353 33.05C242.466 33.0167 242.709 32.9767 243.083 32.93C243.456 32.8833 243.739 32.86 243.933 32.86C243.959 32.88 244.009 32.9433 244.083 33.05C244.156 33.15 244.206 33.23 244.233 33.29C244.459 33.1767 244.733 33.0667 245.053 32.96C245.379 32.8533 245.579 32.8 245.653 32.8C246.359 32.8 246.876 32.9833 247.203 33.35C247.456 33.2167 247.763 33.0933 248.123 32.98C248.483 32.86 248.706 32.8 248.793 32.8C249.426 32.8 249.899 32.95 250.213 33.25C250.526 33.55 250.683 34.05 250.683 34.75C250.683 35.1367 250.653 35.9 250.593 37.04L251.373 37.13C251.373 37.4233 251.296 37.7133 251.143 38H248.663L248.573 37.45C248.886 37.3233 249.173 37.2233 249.433 37.15C249.426 36.9967 249.419 36.78 249.413 36.5C249.399 36.04 249.386 35.5767 249.373 35.11ZM258.07 37.14C258.297 37.14 258.757 36.9833 259.45 36.67C259.597 36.8833 259.707 37.13 259.78 37.41C259.413 37.6367 259.053 37.8133 258.7 37.94C258.353 38.06 258.107 38.12 257.96 38.12C257.153 38.12 256.54 37.8967 256.12 37.45C255.707 37.0033 255.5 36.37 255.5 35.55C255.5 34.7233 255.707 34.06 256.12 33.56C256.533 33.0533 257.147 32.8 257.96 32.8C258.607 32.8 259.1 33.01 259.44 33.43C259.78 33.85 259.95 34.3967 259.95 35.07C259.95 35.21 259.87 35.37 259.71 35.55L256.83 35.5C256.843 36.0333 256.943 36.44 257.13 36.72C257.317 37 257.63 37.14 258.07 37.14ZM257.87 33.63C257.617 33.63 257.38 33.68 257.16 33.78C257.007 34.1 256.91 34.3967 256.87 34.67C257.39 34.65 257.98 34.6367 258.64 34.63C258.607 33.9633 258.35 33.63 257.87 33.63Z" fill="#000429"/>
<defs>
<linearGradient id="paint0_linear_144_24" x1="0" y1="20" x2="270" y2="20" gradientUnits="userSpaceOnUse">
<stop stop-color="#FF48AB"/>
<stop offset="1" stop-color="#DE7CE7"/>
</linearGradient>
<linearGradient id="paint1_linear_144_24" x1="0" y1="20" x2="270" y2="20" gradientUnits="userSpaceOnUse">
<stop stop-color="#FF48AB"/>
<stop offset="1" stop-color="#DE7CE7"/>
</linearGradient>
<linearGradient id="paint2_linear_144_24" x1="0" y1="20" x2="270" y2="20" gradientUnits="userSpaceOnUse">
<stop stop-color="#FF48AB"/>
<stop offset="1" stop-color="#DE7CE7"/>
</linearGradient>
</defs>
</svg>
