<svg width="270" height="42" viewBox="0 0 270 42" fill="none" xmlns="http://www.w3.org/2000/svg">
<rect width="270" height="40" fill="url(#paint0_linear_144_31)"/>
<path d="M232 8.5H231.882L231.776 8.44721L215.882 0.5H0.5V21.7427L10.6602 29H89H118H118.248L118.398 29.197L126.248 39.5H269.5V17.7595L256.342 8.5H232Z" fill="#000429" stroke="url(#paint1_linear_144_31)"/>
<path d="M232 8.5H231.882L231.776 8.44721L215.882 0.5H0.5V21.7427L10.6602 29H118H118.268L118.416 29.2227L125.268 39.5H269.5V17.7595L256.342 8.5H232Z" fill="#000429" stroke="url(#paint2_linear_144_31)"/>
<path d="M7.16 31C8.00667 31 8.63667 31.1467 9.05 31.44C9.46333 31.7333 9.67 32.2667 9.67 33.04C9.67 33.6867 9.47 34.2267 9.07 34.66C8.67 35.0867 8.03 35.3 7.15 35.3C6.86333 35.3 6.63667 35.2967 6.47 35.29L6.45 37.05L7.18 37.13C7.18 37.4233 7.10333 37.7133 6.95 38H4.48L4.39 37.45C4.73667 37.31 5.01667 37.2133 5.23 37.16C5.23 37.14 5.2 35.3767 5.14 31.87C5.03333 31.8433 4.75667 31.7567 4.31 31.61L4.39 31H7.16ZM6.94 34.35C7.38667 34.3433 7.73333 34.22 7.98 33.98C8.22667 33.74 8.35 33.43 8.35 33.05C8.35 32.67 8.24 32.4 8.02 32.24C7.80667 32.0733 7.47 31.99 7.01 31.99C6.83 31.99 6.66 31.9933 6.5 32C6.48667 33.0533 6.48 33.84 6.48 34.36L6.94 34.35ZM15.842 30.57L16.082 30.58C16.082 30.9267 16.0386 31.23 15.952 31.49C15.9386 32.25 15.932 32.82 15.932 33.2C16.1453 33.1067 16.3886 33.0167 16.662 32.93C16.9353 32.8433 17.1053 32.8 17.172 32.8C17.852 32.8 18.3386 32.9533 18.632 33.26C18.932 33.5667 19.082 34.05 19.082 34.71C19.082 34.7767 19.0486 35.5533 18.982 37.04L19.762 37.14C19.762 37.4267 19.6853 37.7133 19.532 38H17.042L16.952 37.45C17.3986 37.27 17.6853 37.1733 17.812 37.16C17.7986 36.44 17.782 35.8033 17.762 35.25C17.742 34.69 17.6886 34.32 17.602 34.14C17.5153 33.96 17.3753 33.87 17.182 33.87C16.9953 33.87 16.7786 33.8933 16.532 33.94C16.292 33.98 16.1053 34.03 15.972 34.09L15.862 37.04L16.642 37.13C16.642 37.4033 16.5653 37.6933 16.412 38H13.922L13.832 37.45C14.2453 37.2967 14.5453 37.1967 14.732 37.15L14.542 31.6C14.2286 31.5667 13.9653 31.5167 13.752 31.45C13.752 31.2833 13.7753 31.0433 13.822 30.73C14.2153 30.6233 14.8886 30.57 15.842 30.57ZM26.4738 33.6C26.2338 33.6 25.9605 33.66 25.6538 33.78C25.5672 33.9133 25.4838 34.15 25.4038 34.49C25.3305 34.8233 25.2938 35.16 25.2938 35.5C25.2938 36.1267 25.3872 36.5733 25.5738 36.84C25.7605 37.1 26.0605 37.23 26.4738 37.23C26.8938 37.23 27.1972 37.1 27.3838 36.84C27.5705 36.5733 27.6638 36.12 27.6638 35.48C27.6638 34.8333 27.5672 34.36 27.3738 34.06C27.1872 33.7533 26.8872 33.6 26.4738 33.6ZM26.4738 32.8C27.2538 32.8 27.8805 33.04 28.3538 33.52C28.8338 33.9933 29.0738 34.6567 29.0738 35.51C29.0738 36.3567 28.8372 37.0033 28.3638 37.45C27.8905 37.8967 27.2605 38.12 26.4738 38.12C25.6872 38.12 25.0572 37.8967 24.5838 37.45C24.1172 37.0033 23.8838 36.3567 23.8838 35.51C23.8838 34.6567 24.1205 33.9933 24.5938 33.52C25.0672 33.04 25.6938 32.8 26.4738 32.8ZM36.3447 32.8C37.0114 32.8 37.4947 32.9633 37.7947 33.29C38.0947 33.6167 38.2447 34.0733 38.2447 34.66C38.2447 35.2467 38.2114 36.04 38.1447 37.04L38.9347 37.13C38.9347 37.4033 38.858 37.6933 38.7047 38H36.2147L36.1247 37.45C36.438 37.3233 36.728 37.2233 36.9947 37.15C36.9747 36.3833 36.9547 35.74 36.9347 35.22C36.9147 34.6933 36.8647 34.3367 36.7847 34.15C36.7047 33.9633 36.528 33.87 36.2547 33.87C35.8414 33.87 35.4714 33.9433 35.1447 34.09C35.138 34.3767 35.118 34.8467 35.0847 35.5C35.058 36.1467 35.0414 36.66 35.0347 37.04L35.8147 37.13C35.8147 37.4033 35.738 37.6933 35.5847 38H33.0947L33.0047 37.45C33.338 37.3233 33.638 37.2233 33.9047 37.15C33.898 36.75 33.8747 36.1967 33.8347 35.49C33.8014 34.7833 33.7814 34.26 33.7747 33.92C33.528 33.8933 33.2647 33.8433 32.9847 33.77L33.0347 33.05C33.5014 32.9233 34.028 32.86 34.6147 32.86C34.688 32.9067 34.788 33.05 34.9147 33.29C35.1414 33.1767 35.418 33.0667 35.7447 32.96C36.0714 32.8533 36.2714 32.8 36.3447 32.8ZM45.6368 37.14C45.8635 37.14 46.3235 36.9833 47.0168 36.67C47.1635 36.8833 47.2735 37.13 47.3468 37.41C46.9801 37.6367 46.6201 37.8133 46.2668 37.94C45.9201 38.06 45.6735 38.12 45.5268 38.12C44.7201 38.12 44.1068 37.8967 43.6868 37.45C43.2735 37.0033 43.0668 36.37 43.0668 35.55C43.0668 34.7233 43.2735 34.06 43.6868 33.56C44.1001 33.0533 44.7135 32.8 45.5268 32.8C46.1735 32.8 46.6668 33.01 47.0068 33.43C47.3468 33.85 47.5168 34.3967 47.5168 35.07C47.5168 35.21 47.4368 35.37 47.2768 35.55L44.3968 35.5C44.4101 36.0333 44.5101 36.44 44.6968 36.72C44.8835 37 45.1968 37.14 45.6368 37.14ZM45.4368 33.63C45.1835 33.63 44.9468 33.68 44.7268 33.78C44.5735 34.1 44.4768 34.3967 44.4368 34.67C44.9568 34.65 45.5468 34.6367 46.2068 34.63C46.1735 33.9633 45.9168 33.63 45.4368 33.63ZM61.6216 32.8C62.2883 32.8 62.7716 32.9633 63.0716 33.29C63.3716 33.6167 63.5216 34.0733 63.5216 34.66C63.5216 35.2467 63.4883 36.04 63.4216 37.04L64.2116 37.13C64.2116 37.4033 64.135 37.6933 63.9816 38H61.4916L61.4016 37.45C61.715 37.3233 62.005 37.2233 62.2716 37.15C62.2516 36.3833 62.2316 35.74 62.2116 35.22C62.1916 34.6933 62.1416 34.3367 62.0616 34.15C61.9816 33.9633 61.805 33.87 61.5316 33.87C61.1183 33.87 60.7483 33.9433 60.4216 34.09C60.415 34.3767 60.395 34.8467 60.3616 35.5C60.335 36.1467 60.3183 36.66 60.3116 37.04L61.0916 37.13C61.0916 37.4033 61.015 37.6933 60.8616 38H58.3716L58.2816 37.45C58.615 37.3233 58.915 37.2233 59.1816 37.15C59.175 36.75 59.1516 36.1967 59.1116 35.49C59.0783 34.7833 59.0583 34.26 59.0516 33.92C58.805 33.8933 58.5416 33.8433 58.2616 33.77L58.3116 33.05C58.7783 32.9233 59.305 32.86 59.8916 32.86C59.965 32.9067 60.065 33.05 60.1916 33.29C60.4183 33.1767 60.695 33.0667 61.0216 32.96C61.3483 32.8533 61.5483 32.8 61.6216 32.8ZM73.0337 32.88C73.1604 32.88 73.2404 32.8833 73.2737 32.89C73.2737 33.23 73.2171 33.5233 73.1037 33.77C73.0637 35.2367 73.0304 36.32 73.0037 37.02C73.3037 37.0467 73.5671 37.0967 73.7937 37.17L73.7737 37.87C73.3671 37.9967 73.0171 38.06 72.7237 38.06C72.4304 38.06 72.2304 38.0533 72.1237 38.04C72.0437 37.88 71.9771 37.72 71.9237 37.56C71.3704 37.9333 70.9704 38.12 70.7237 38.12C69.5304 38.12 68.9337 37.5167 68.9337 36.31C68.9337 35.9833 68.9604 35.18 69.0137 33.9C68.6604 33.9 68.3371 33.8533 68.0437 33.76C68.0437 33.5933 68.0671 33.3533 68.1137 33.04C68.5071 32.9333 69.1804 32.88 70.1337 32.88C70.2604 32.88 70.3404 32.8833 70.3737 32.89C70.3737 33.2167 70.3171 33.52 70.2037 33.8V35.82C70.2037 36.2467 70.2471 36.56 70.3337 36.76C70.4271 36.9533 70.6204 37.05 70.9137 37.05C71.2137 37.05 71.5204 36.9467 71.8337 36.74L71.7737 33.9C71.4804 33.8867 71.2037 33.84 70.9437 33.76C70.9437 33.5933 70.9671 33.3533 71.0137 33.04C71.4071 32.9333 72.0804 32.88 73.0337 32.88ZM85.041 35.11C85.0277 34.6433 84.971 34.32 84.871 34.14C84.7777 33.96 84.5577 33.87 84.211 33.87C83.871 33.87 83.5544 33.9433 83.261 34.09C83.261 34.9433 83.2177 35.9267 83.131 37.04L83.921 37.13C83.921 37.4033 83.8444 37.6933 83.691 38H81.201L81.111 37.45C81.4577 37.3233 81.761 37.2233 82.021 37.15L81.941 35.07C81.9277 34.6367 81.8744 34.33 81.781 34.15C81.6944 33.9633 81.5244 33.87 81.271 33.87C81.1377 33.87 80.9444 33.8933 80.691 33.94C80.4377 33.9867 80.2444 34.0367 80.111 34.09C80.111 34.11 80.081 35.0933 80.021 37.04L80.801 37.13C80.801 37.4233 80.7244 37.7133 80.571 38H78.081L77.991 37.45C78.3844 37.2967 78.6844 37.1967 78.891 37.15L78.761 33.92C78.4877 33.8933 78.2244 33.8433 77.971 33.77L78.021 33.05C78.1344 33.0167 78.3777 32.9767 78.751 32.93C79.1244 32.8833 79.4077 32.86 79.601 32.86C79.6277 32.88 79.6777 32.9433 79.751 33.05C79.8244 33.15 79.8744 33.23 79.901 33.29C80.1277 33.1767 80.401 33.0667 80.721 32.96C81.0477 32.8533 81.2477 32.8 81.321 32.8C82.0277 32.8 82.5444 32.9833 82.871 33.35C83.1244 33.2167 83.431 33.0933 83.791 32.98C84.151 32.86 84.3744 32.8 84.461 32.8C85.0944 32.8 85.5677 32.95 85.881 33.25C86.1944 33.55 86.351 34.05 86.351 34.75C86.351 35.1367 86.321 35.9 86.261 37.04L87.041 37.13C87.041 37.4233 86.9644 37.7133 86.811 38H84.331L84.241 37.45C84.5544 37.3233 84.841 37.2233 85.101 37.15C85.0944 36.9967 85.0877 36.78 85.081 36.5C85.0677 36.04 85.0544 35.5767 85.041 35.11ZM92.8584 30.57C93.0184 30.57 93.1217 30.5733 93.1684 30.58C93.1684 30.9267 93.125 31.23 93.0384 31.49L93.0084 33.17C93.6284 32.9233 94.055 32.8 94.2884 32.8C94.9484 32.8 95.435 33.0467 95.7484 33.54C96.0684 34.0267 96.2284 34.66 96.2284 35.44C96.2284 36.22 96.0517 36.8633 95.6984 37.37C95.345 37.87 94.8317 38.12 94.1584 38.12C93.7184 38.12 93.255 37.9533 92.7684 37.62C92.7417 37.7733 92.7017 37.9133 92.6484 38.04C92.5284 38.0533 92.4084 38.06 92.2884 38.06C92.1684 38.06 92.0184 38.04 91.8384 38L91.6284 31.6C91.315 31.5667 91.0517 31.5167 90.8384 31.45C90.8384 31.2033 90.8617 30.9633 90.9084 30.73C91.295 30.6233 91.945 30.57 92.8584 30.57ZM94.1184 33.85C93.685 33.85 93.3117 33.9267 92.9984 34.08C92.985 35.2 92.9717 36.0467 92.9584 36.62C93.1184 36.7533 93.3017 36.8733 93.5084 36.98C93.715 37.0867 93.8917 37.14 94.0384 37.14C94.6184 37.14 94.9084 36.6067 94.9084 35.54C94.9084 35.0867 94.845 34.6933 94.7184 34.36C94.5984 34.02 94.3984 33.85 94.1184 33.85ZM102.831 37.14C103.058 37.14 103.518 36.9833 104.211 36.67C104.358 36.8833 104.468 37.13 104.541 37.41C104.175 37.6367 103.815 37.8133 103.461 37.94C103.115 38.06 102.868 38.12 102.721 38.12C101.915 38.12 101.301 37.8967 100.881 37.45C100.468 37.0033 100.261 36.37 100.261 35.55C100.261 34.7233 100.468 34.06 100.881 33.56C101.295 33.0533 101.908 32.8 102.721 32.8C103.368 32.8 103.861 33.01 104.201 33.43C104.541 33.85 104.711 34.3967 104.711 35.07C104.711 35.21 104.631 35.37 104.471 35.55L101.591 35.5C101.605 36.0333 101.705 36.44 101.891 36.72C102.078 37 102.391 37.14 102.831 37.14ZM102.631 33.63C102.378 33.63 102.141 33.68 101.921 33.78C101.768 34.1 101.671 34.3967 101.631 34.67C102.151 34.65 102.741 34.6367 103.401 34.63C103.368 33.9633 103.111 33.63 102.631 33.63ZM112.039 33.88C112.025 33.8467 111.959 33.83 111.839 33.83C111.719 33.83 111.512 33.92 111.219 34.1C111.192 35.4067 111.175 36.3867 111.169 37.04L111.949 37.14C111.949 37.4267 111.872 37.7133 111.719 38H109.229L109.139 37.45C109.552 37.2967 109.852 37.1967 110.039 37.15L109.929 33.91C109.582 33.8833 109.292 33.8333 109.059 33.76L109.129 33.04C109.309 32.96 109.959 32.9067 111.079 32.88C111.139 32.94 111.169 33.0567 111.169 33.23C111.755 32.9433 112.125 32.8 112.279 32.8C112.439 32.8 112.632 32.84 112.859 32.92C113.092 32.9933 113.269 33.0733 113.389 33.16V33.33C113.389 33.8767 113.322 34.3833 113.189 34.85C113.075 34.8967 112.925 34.92 112.739 34.92C112.552 34.92 112.379 34.91 112.219 34.89C112.199 34.8033 112.139 34.4667 112.039 33.88Z" fill="#000429"/>
<defs>
<linearGradient id="paint0_linear_144_31" x1="0" y1="20" x2="270" y2="20" gradientUnits="userSpaceOnUse">
<stop stop-color="#FF48AB"/>
<stop offset="1" stop-color="#DE7CE7"/>
</linearGradient>
<linearGradient id="paint1_linear_144_31" x1="270" y1="20" x2="0" y2="20" gradientUnits="userSpaceOnUse">
<stop stop-color="#FF48AB"/>
<stop offset="1" stop-color="#DE7CE7"/>
</linearGradient>
<linearGradient id="paint2_linear_144_31" x1="270" y1="20" x2="0" y2="20" gradientUnits="userSpaceOnUse">
<stop stop-color="#FF48AB"/>
<stop offset="1" stop-color="#DE7CE7"/>
</linearGradient>
</defs>
</svg>
