<svg width="597" height="100" viewBox="0 0 597 100" fill="none" xmlns="http://www.w3.org/2000/svg">
<rect width="597" height="89.9811" fill="url(#paint0_linear_144_68)"/>
<path d="M84.0222 18.4962H84.1421L84.2489 18.4419L119.52 0.5H596.5V49.2349L573.621 65.8611H400.211H399.987L399.837 66.0288L378.981 89.4811H0.5V39.6237L30.0105 18.4962H84.0222Z" fill="#000429" stroke="url(#paint1_linear_144_68)"/>
<path d="M84.0222 18.4962H84.1421L84.2489 18.4419L119.52 0.5H596.5V49.2349L573.621 65.8611H400.211H399.987L399.837 66.0288L378.981 89.4811H0.5V39.6237L30.0105 18.4962H84.0222Z" fill="#000429" stroke="url(#paint2_linear_144_68)"/>
<path d="M415.895 82.9091L414.047 75.2791H413.907L412.031 82.9091H409.847L407.607 74.2851C407.317 74.2104 406.925 74.0751 406.431 73.8791L406.557 73.1091H409.959C410.173 73.5384 410.281 73.9444 410.281 74.3271C410.001 74.3831 409.679 74.4251 409.315 74.4531L410.785 80.6411L412.997 73.1091H415.125L416.959 80.5571L418.471 74.2851C418.181 74.2104 417.789 74.0751 417.295 73.8791L417.421 73.1091H420.823C421.037 73.5384 421.145 73.9444 421.145 74.3271C420.865 74.3831 420.543 74.4251 420.179 74.4531L417.911 82.9091H415.895ZM431.324 77.1411C431.306 77.0944 431.212 77.0711 431.044 77.0711C430.876 77.0711 430.587 77.1971 430.176 77.4491C430.139 79.2784 430.116 80.6504 430.106 81.5651L431.198 81.7051C431.198 82.1064 431.091 82.5078 430.876 82.9091H427.39L427.264 82.1391C427.843 81.9244 428.263 81.7844 428.524 81.7191L428.37 77.1831C427.885 77.1458 427.479 77.0758 427.152 76.9731L427.25 75.9651C427.502 75.8531 428.412 75.7784 429.98 75.7411C430.064 75.8251 430.106 75.9884 430.106 76.2311C430.928 75.8298 431.446 75.6291 431.66 75.6291C431.884 75.6291 432.155 75.6851 432.472 75.7971C432.799 75.8998 433.046 76.0118 433.214 76.1331V76.3711C433.214 77.1364 433.121 77.8458 432.934 78.4991C432.776 78.5644 432.566 78.5971 432.304 78.5971C432.043 78.5971 431.8 78.5831 431.576 78.5551C431.548 78.4338 431.464 77.9624 431.324 77.1411ZM441.715 75.7411C441.893 75.7411 442.005 75.7458 442.051 75.7551C442.051 76.2124 441.972 76.6371 441.813 77.0291C441.776 79.0451 441.753 80.5571 441.743 81.5651L442.835 81.6911C442.835 82.0738 442.728 82.4798 442.513 82.9091H439.027L438.901 82.1391C439.48 81.9244 439.9 81.7844 440.161 81.7191L440.007 77.1831C439.457 77.1271 439.051 77.0571 438.789 76.9731C438.789 76.7398 438.822 76.4038 438.887 75.9651C439.438 75.8158 440.381 75.7411 441.715 75.7411ZM441.715 73.0951C441.799 73.5151 441.841 73.8371 441.841 74.0611C441.841 74.2758 441.823 74.5184 441.785 74.7891C441.412 74.8731 441.095 74.9151 440.833 74.9151C440.581 74.9151 440.273 74.9011 439.909 74.8731C439.825 74.4531 439.783 74.1358 439.783 73.9211C439.783 73.6971 439.802 73.4498 439.839 73.1791C440.213 73.0951 440.525 73.0531 440.777 73.0531C441.039 73.0531 441.351 73.0671 441.715 73.0951ZM450.124 83.0771L449.816 83.0631C449.76 82.9604 449.685 82.7691 449.592 82.4891C449.499 82.2091 449.447 81.9991 449.438 81.8591C449.391 80.9351 449.34 79.3344 449.284 77.0571H448.304L448.346 76.2591C448.561 76.1098 448.817 75.9744 449.116 75.8531L450.25 74.0611C450.614 74.0984 450.899 74.1964 451.104 74.3551L451.09 75.6851C451.678 75.7038 452.224 75.7598 452.728 75.8531C452.728 76.2264 452.611 76.6278 452.378 77.0571H451.076C451.039 79.0171 451.015 80.4871 451.006 81.4671C451.379 81.5044 451.888 81.6118 452.532 81.7891L452.518 82.5171C452.359 82.6198 452.005 82.7411 451.454 82.8811C450.913 83.0118 450.469 83.0771 450.124 83.0771ZM462.341 81.7051C462.659 81.7051 463.303 81.4858 464.273 81.0471C464.479 81.3458 464.633 81.6911 464.735 82.0831C464.222 82.4004 463.718 82.6478 463.223 82.8251C462.738 82.9931 462.393 83.0771 462.187 83.0771C461.058 83.0771 460.199 82.7644 459.611 82.1391C459.033 81.5138 458.743 80.6271 458.743 79.4791C458.743 78.3218 459.033 77.3931 459.611 76.6931C460.19 75.9838 461.049 75.6291 462.187 75.6291C463.093 75.6291 463.783 75.9231 464.259 76.5111C464.735 77.0991 464.973 77.8644 464.973 78.8071C464.973 79.0031 464.861 79.2271 464.637 79.4791L460.605 79.4091C460.624 80.1558 460.764 80.7251 461.025 81.1171C461.287 81.5091 461.725 81.7051 462.341 81.7051ZM462.061 76.7911C461.707 76.7911 461.375 76.8611 461.067 77.0011C460.853 77.4491 460.717 77.8644 460.661 78.2471C461.389 78.2191 462.215 78.2004 463.139 78.1911C463.093 77.2578 462.733 76.7911 462.061 76.7911ZM489.914 78.8631C489.895 78.2098 489.816 77.7571 489.676 77.5051C489.545 77.2531 489.237 77.1271 488.752 77.1271C488.276 77.1271 487.833 77.2298 487.422 77.4351C487.422 78.6298 487.361 80.0064 487.24 81.5651L488.346 81.6911C488.346 82.0738 488.239 82.4798 488.024 82.9091H484.538L484.412 82.1391C484.897 81.9618 485.322 81.8218 485.686 81.7191L485.574 78.8071C485.555 78.2004 485.481 77.7711 485.35 77.5191C485.229 77.2578 484.991 77.1271 484.636 77.1271C484.449 77.1271 484.179 77.1598 483.824 77.2251C483.469 77.2904 483.199 77.3604 483.012 77.4351C483.012 77.4631 482.97 78.8398 482.886 81.5651L483.978 81.6911C483.978 82.1018 483.871 82.5078 483.656 82.9091H480.17L480.044 82.1391C480.595 81.9244 481.015 81.7844 481.304 81.7191L481.122 77.1971C480.739 77.1598 480.371 77.0898 480.016 76.9871L480.086 75.9791C480.245 75.9324 480.585 75.8764 481.108 75.8111C481.631 75.7458 482.027 75.7131 482.298 75.7131C482.335 75.7411 482.405 75.8298 482.508 75.9791C482.611 76.1191 482.681 76.2311 482.718 76.3151C483.035 76.1564 483.418 76.0024 483.866 75.8531C484.323 75.7038 484.603 75.6291 484.706 75.6291C485.695 75.6291 486.419 75.8858 486.876 76.3991C487.231 76.2124 487.66 76.0398 488.164 75.8811C488.668 75.7131 488.981 75.6291 489.102 75.6291C489.989 75.6291 490.651 75.8391 491.09 76.2591C491.529 76.6791 491.748 77.3791 491.748 78.3591C491.748 78.9004 491.706 79.9691 491.622 81.5651L492.714 81.6911C492.714 82.1018 492.607 82.5078 492.392 82.9091H488.92L488.794 82.1391C489.233 81.9618 489.634 81.8218 489.998 81.7191C489.989 81.5044 489.979 81.2011 489.97 80.8091C489.951 80.1651 489.933 79.5164 489.914 78.8631ZM502.09 81.7051C502.408 81.7051 503.052 81.4858 504.022 81.0471C504.228 81.3458 504.382 81.6911 504.484 82.0831C503.971 82.4004 503.467 82.6478 502.972 82.8251C502.487 82.9931 502.142 83.0771 501.936 83.0771C500.807 83.0771 499.948 82.7644 499.36 82.1391C498.782 81.5138 498.492 80.6271 498.492 79.4791C498.492 78.3218 498.782 77.3931 499.36 76.6931C499.939 75.9838 500.798 75.6291 501.936 75.6291C502.842 75.6291 503.532 75.9231 504.008 76.5111C504.484 77.0991 504.722 77.8644 504.722 78.8071C504.722 79.0031 504.61 79.2271 504.386 79.4791L500.354 79.4091C500.373 80.1558 500.513 80.7251 500.774 81.1171C501.036 81.5091 501.474 81.7051 502.09 81.7051ZM501.81 76.7911C501.456 76.7911 501.124 76.8611 500.816 77.0011C500.602 77.4491 500.466 77.8644 500.41 78.2471C501.138 78.2191 501.964 78.2004 502.888 78.1911C502.842 77.2578 502.482 76.7911 501.81 76.7911ZM516.002 76.2311L516.016 76.6651C516.016 77.3931 515.96 77.8691 515.848 78.0931C515.54 78.2051 515.111 78.2611 514.56 78.2611L514.112 76.8471C513.991 76.8004 513.823 76.7771 513.608 76.7771C513.394 76.7771 513.216 76.8424 513.076 76.9731C512.946 77.1038 512.88 77.2578 512.88 77.4351C512.88 77.6124 512.95 77.7758 513.09 77.9251C513.23 78.0651 513.375 78.1771 513.524 78.2611C513.674 78.3451 513.888 78.4571 514.168 78.5971C514.458 78.7278 514.672 78.8304 514.812 78.9051C514.962 78.9798 515.148 79.0918 515.372 79.2411C515.606 79.3904 515.783 79.5304 515.904 79.6611C516.203 80.0158 516.352 80.4031 516.352 80.8231C516.352 81.5418 516.077 82.0971 515.526 82.4891C514.985 82.8811 514.318 83.0771 513.524 83.0771C513.104 83.0771 512.642 83.0024 512.138 82.8531C511.644 82.7038 511.224 82.5031 510.878 82.2511C510.878 81.5791 510.944 80.9538 511.074 80.3751C511.448 80.3284 511.751 80.3051 511.984 80.3051C512.218 80.3051 512.376 80.3098 512.46 80.3191L512.628 81.6771C512.862 81.7611 513.142 81.8031 513.468 81.8031C513.795 81.8031 514.052 81.7378 514.238 81.6071C514.434 81.4764 514.532 81.2944 514.532 81.0611C514.532 80.8184 514.425 80.6178 514.21 80.4591C513.996 80.3004 513.702 80.1371 513.328 79.9691C512.955 79.7918 512.666 79.6471 512.46 79.5351C512.255 79.4138 512.036 79.2598 511.802 79.0731C511.326 78.7091 511.088 78.2611 511.088 77.7291C511.088 77.0664 511.317 76.5531 511.774 76.1891C512.241 75.8158 512.866 75.6291 513.65 75.6291C514.434 75.6291 515.218 75.8298 516.002 76.2311ZM527.653 76.2311L527.667 76.6651C527.667 77.3931 527.611 77.8691 527.499 78.0931C527.191 78.2051 526.761 78.2611 526.211 78.2611L525.763 76.8471C525.641 76.8004 525.473 76.7771 525.259 76.7771C525.044 76.7771 524.867 76.8424 524.727 76.9731C524.596 77.1038 524.531 77.2578 524.531 77.4351C524.531 77.6124 524.601 77.7758 524.741 77.9251C524.881 78.0651 525.025 78.1771 525.175 78.2611C525.324 78.3451 525.539 78.4571 525.819 78.5971C526.108 78.7278 526.323 78.8304 526.463 78.9051C526.612 78.9798 526.799 79.0918 527.023 79.2411C527.256 79.3904 527.433 79.5304 527.555 79.6611C527.853 80.0158 528.003 80.4031 528.003 80.8231C528.003 81.5418 527.727 82.0971 527.177 82.4891C526.635 82.8811 525.968 83.0771 525.175 83.0771C524.755 83.0771 524.293 83.0024 523.789 82.8531C523.294 82.7038 522.874 82.5031 522.529 82.2511C522.529 81.5791 522.594 80.9538 522.725 80.3751C523.098 80.3284 523.401 80.3051 523.635 80.3051C523.868 80.3051 524.027 80.3098 524.111 80.3191L524.279 81.6771C524.512 81.7611 524.792 81.8031 525.119 81.8031C525.445 81.8031 525.702 81.7378 525.889 81.6071C526.085 81.4764 526.183 81.2944 526.183 81.0611C526.183 80.8184 526.075 80.6178 525.861 80.4591C525.646 80.3004 525.352 80.1371 524.979 79.9691C524.605 79.7918 524.316 79.6471 524.111 79.5351C523.905 79.4138 523.686 79.2598 523.453 79.0731C522.977 78.7091 522.739 78.2611 522.739 77.7291C522.739 77.0664 522.967 76.5531 523.425 76.1891C523.891 75.8158 524.517 75.6291 525.301 75.6291C526.085 75.6291 526.869 75.8298 527.653 76.2311ZM539.303 76.2311L539.317 76.6651C539.317 77.3931 539.261 77.8691 539.149 78.0931C538.841 78.2051 538.411 78.2611 537.861 78.2611L537.413 76.8471C537.291 76.8004 537.123 76.7771 536.909 76.7771C536.694 76.7771 536.517 76.8424 536.377 76.9731C536.246 77.1038 536.181 77.2578 536.181 77.4351C536.181 77.6124 536.251 77.7758 536.391 77.9251C536.531 78.0651 536.675 78.1771 536.825 78.2611C536.974 78.3451 537.189 78.4571 537.469 78.5971C537.758 78.7278 537.973 78.8304 538.113 78.9051C538.262 78.9798 538.449 79.0918 538.673 79.2411C538.906 79.3904 539.083 79.5304 539.205 79.6611C539.503 80.0158 539.653 80.4031 539.653 80.8231C539.653 81.5418 539.377 82.0971 538.827 82.4891C538.285 82.8811 537.618 83.0771 536.825 83.0771C536.405 83.0771 535.943 83.0024 535.439 82.8531C534.944 82.7038 534.524 82.5031 534.179 82.2511C534.179 81.5791 534.244 80.9538 534.375 80.3751C534.748 80.3284 535.051 80.3051 535.285 80.3051C535.518 80.3051 535.677 80.3098 535.761 80.3191L535.929 81.6771C536.162 81.7611 536.442 81.8031 536.769 81.8031C537.095 81.8031 537.352 81.7378 537.539 81.6071C537.735 81.4764 537.833 81.2944 537.833 81.0611C537.833 80.8184 537.725 80.6178 537.511 80.4591C537.296 80.3004 537.002 80.1371 536.629 79.9691C536.255 79.7918 535.966 79.6471 535.761 79.5351C535.555 79.4138 535.336 79.2598 535.103 79.0731C534.627 78.7091 534.389 78.2611 534.389 77.7291C534.389 77.0664 534.617 76.5531 535.075 76.1891C535.541 75.8158 536.167 75.6291 536.951 75.6291C537.735 75.6291 538.519 75.8298 539.303 76.2311ZM548.433 83.0771C547.639 83.0771 547.023 82.9138 546.585 82.5871C546.155 82.2604 545.941 81.7098 545.941 80.9351C545.941 80.1978 546.197 79.5958 546.711 79.1291C547.009 78.8584 547.425 78.6998 547.957 78.6531C548.489 78.6064 549.221 78.5831 550.155 78.5831V78.3591C550.155 77.7898 550.061 77.3744 549.875 77.1131C549.697 76.8424 549.38 76.7071 548.923 76.7071C548.689 76.7071 548.479 76.7538 548.293 76.8471L547.957 78.0651L546.921 78.0371C546.687 77.6824 546.561 77.1178 546.543 76.3431C546.729 76.2498 547.168 76.1098 547.859 75.9231C548.549 75.7271 548.993 75.6291 549.189 75.6291C550.197 75.6291 550.929 75.8391 551.387 76.2591C551.844 76.6698 552.073 77.3278 552.073 78.2331C552.073 79.1291 552.031 80.3144 551.947 81.7891C552.479 81.8358 552.889 81.9151 553.179 82.0271C553.188 82.1391 553.193 82.2744 553.193 82.4331L553.179 82.7411C552.507 82.9651 551.83 83.0771 551.149 83.0771C550.971 83.0771 550.841 83.0724 550.757 83.0631C550.617 82.7831 550.533 82.4471 550.505 82.0551H550.435C550.257 82.2231 549.945 82.4378 549.497 82.6991C549.058 82.9511 548.703 83.0771 548.433 83.0771ZM547.733 81.0191C547.733 81.3271 547.826 81.5558 548.013 81.7051C548.209 81.8451 548.428 81.9151 548.671 81.9151C548.913 81.9151 549.203 81.8078 549.539 81.5931C549.875 81.3691 550.145 81.1684 550.351 80.9911L550.281 79.7031C549.543 79.7404 548.988 79.8104 548.615 79.9131C548.027 80.0344 547.733 80.4031 547.733 81.0191ZM564.31 80.4871C564.002 80.6831 563.675 80.8278 563.33 80.9211C562.984 81.0051 562.648 81.0471 562.322 81.0471C562.004 81.0471 561.724 81.0144 561.482 80.9491C561.379 81.1918 561.281 81.3738 561.188 81.4951C561.262 81.6071 562.046 81.6631 563.54 81.6631C564.473 81.6631 565.131 81.8078 565.514 82.0971C565.691 82.2184 565.845 82.4098 565.976 82.6711C566.116 82.9324 566.186 83.2684 566.186 83.6791C566.186 84.0991 565.98 84.5191 565.57 84.9391C565.159 85.3591 564.646 85.6904 564.03 85.9331C563.414 86.1758 562.802 86.2971 562.196 86.2971C561.188 86.2971 560.371 86.0964 559.746 85.6951C559.12 85.3031 558.808 84.8131 558.808 84.2251C558.808 84.1131 558.971 83.8378 559.298 83.3991C559.624 82.9698 559.839 82.7224 559.942 82.6571C559.848 82.6104 559.685 82.4564 559.452 82.1951C559.218 81.9244 559.088 81.7331 559.06 81.6211C559.181 81.2851 559.554 80.8651 560.18 80.3611C559.452 79.9224 559.088 79.1851 559.088 78.1491C559.088 77.3278 559.368 76.7024 559.928 76.2731C560.497 75.8438 561.244 75.6291 562.168 75.6291C563.101 75.6291 563.806 75.7551 564.282 76.0071C565.075 75.8671 565.635 75.7971 565.962 75.7971C566.298 75.7971 566.517 75.8018 566.62 75.8111C566.62 76.0351 566.564 76.2918 566.452 76.5811C566.349 76.8611 566.251 77.0571 566.158 77.1691L564.954 76.8891C565.187 77.2251 565.304 77.6591 565.304 78.1911C565.304 78.7231 565.215 79.1898 565.038 79.5911C564.86 79.9831 564.618 80.2818 564.31 80.4871ZM564.24 84.4911C564.305 84.3138 564.338 84.1084 564.338 83.8751C564.338 83.6418 564.235 83.4691 564.03 83.3571C563.824 83.2544 563.582 83.2031 563.302 83.2031C562.21 83.2031 561.486 83.1938 561.132 83.1751C561.057 83.3338 560.964 83.5578 560.852 83.8471C560.74 84.1458 560.684 84.3231 560.684 84.3791C560.684 84.4351 560.721 84.5144 560.796 84.6171C560.87 84.7291 561.029 84.8458 561.272 84.9671C561.524 85.0884 561.827 85.1491 562.182 85.1491C562.546 85.1491 562.97 85.0651 563.456 84.8971C563.941 84.7291 564.202 84.5938 564.24 84.4911ZM563.106 77.0571C562.891 76.8051 562.588 76.6791 562.196 76.6791C561.804 76.6791 561.496 76.8051 561.272 77.0571C561.057 77.3091 560.95 77.6778 560.95 78.1631C560.95 78.6391 561.062 79.0124 561.286 79.2831C561.51 79.5538 561.813 79.6891 562.196 79.6891C563.026 79.6891 563.442 79.1758 563.442 78.1491C563.442 77.6731 563.33 77.3091 563.106 77.0571ZM575.805 81.7051C576.123 81.7051 576.767 81.4858 577.737 81.0471C577.943 81.3458 578.097 81.6911 578.199 82.0831C577.686 82.4004 577.182 82.6478 576.687 82.8251C576.202 82.9931 575.857 83.0771 575.651 83.0771C574.522 83.0771 573.663 82.7644 573.075 82.1391C572.497 81.5138 572.207 80.6271 572.207 79.4791C572.207 78.3218 572.497 77.3931 573.075 76.6931C573.654 75.9838 574.513 75.6291 575.651 75.6291C576.557 75.6291 577.247 75.9231 577.723 76.5111C578.199 77.0991 578.437 77.8644 578.437 78.8071C578.437 79.0031 578.325 79.2271 578.101 79.4791L574.069 79.4091C574.088 80.1558 574.228 80.7251 574.489 81.1171C574.751 81.5091 575.189 81.7051 575.805 81.7051ZM575.525 76.7911C575.171 76.7911 574.839 76.8611 574.531 77.0011C574.317 77.4491 574.181 77.8644 574.125 78.2471C574.853 78.2191 575.679 78.2004 576.603 78.1911C576.557 77.2578 576.197 76.7911 575.525 76.7911Z" fill="#000429"/>
<defs>
<linearGradient id="paint0_linear_144_68" x1="0" y1="44.9906" x2="597" y2="44.9906" gradientUnits="userSpaceOnUse">
<stop stop-color="#FF48AB"/>
<stop offset="1" stop-color="#DE7CE7"/>
</linearGradient>
<linearGradient id="paint1_linear_144_68" x1="0" y1="44.9906" x2="597" y2="44.9906" gradientUnits="userSpaceOnUse">
<stop stop-color="#FF48AB"/>
<stop offset="1" stop-color="#DE7CE7"/>
</linearGradient>
<linearGradient id="paint2_linear_144_68" x1="0" y1="44.9906" x2="597" y2="44.9906" gradientUnits="userSpaceOnUse">
<stop stop-color="#FF48AB"/>
<stop offset="1" stop-color="#DE7CE7"/>
</linearGradient>
</defs>
</svg>
