<svg width="563" height="345" viewBox="0 0 563 345" fill="none" xmlns="http://www.w3.org/2000/svg">
<path d="M562 38.618V319H535H534.548L534.249 319.339L523.548 331.5H471.5H471.119L470.834 331.754L457.119 344H101.903L89.1931 331.779L88.9028 331.5H88.5H37.0473L29.3423 319.461L29.0473 319H28.5H1V35.562L12.0199 28.8542L12.5 28.562V28V16.991L23.1114 8.79128L23.2187 8.70842L23.3 8.6L29 1H166.133L182.353 14.7625L182.633 15H183H357.5H357.876L358.159 14.7526L373.876 1H542.024L548.224 8.63059L548.297 8.72047L548.389 8.79128L558.738 16.7884L551.106 32.0528L550.658 32.9472L551.553 33.3944L562 38.618Z" stroke="url(#paint0_linear_144_321)" stroke-width="2"/>
<defs>
<linearGradient id="paint0_linear_144_321" x1="280" y1="-3.43465e-07" x2="280" y2="345" gradientUnits="userSpaceOnUse">
<stop stop-color="#DE7CE7"/>
<stop offset="1" stop-color="#FF48AB"/>
</linearGradient>
</defs>
</svg>
