<svg width="12" height="210" viewBox="0 0 12 210" fill="none" xmlns="http://www.w3.org/2000/svg">
<line y1="-0.5" x2="88" y2="-0.5" transform="matrix(0 1 1 0 12 0)" stroke="#F459BF"/>
<line y1="-0.5" x2="88" y2="-0.5" transform="matrix(0 1 1 0 12 122)" stroke="#F459BF"/>
<rect width="7" height="8" transform="matrix(-1 0 0 1 7 3)" fill="#F459BF"/>
<rect width="7" height="8" transform="matrix(-1 0 0 1 7 17)" fill="#F459BF"/>
<rect width="7" height="8" transform="matrix(-1 0 0 1 7 31)" fill="#F459BF"/>
<rect width="7" height="8" transform="matrix(-1 0 0 1 7 45)" fill="#F459BF"/>
<rect width="7" height="8" transform="matrix(-1 0 0 1 7 59)" fill="#F459BF"/>
<rect width="7" height="8" transform="matrix(-1 0 0 1 7 73)" fill="#F459BF"/>
<rect width="7" height="8" transform="matrix(-1 0 0 1 7 127)" fill="#F459BF"/>
<rect width="7" height="8" transform="matrix(-1 0 0 1 7 141)" fill="#F459BF"/>
<rect width="7" height="8" transform="matrix(-1 0 0 1 7 155)" fill="#F459BF"/>
<rect width="7" height="8" transform="matrix(-1 0 0 1 7 169)" fill="#F459BF"/>
<rect width="7" height="8" transform="matrix(-1 0 0 1 7 183)" fill="#F459BF"/>
<rect width="7" height="8" transform="matrix(-1 0 0 1 7 197)" fill="#F459BF"/>
</svg>
