<svg width="1329" height="71" viewBox="0 0 1329 71" fill="none" xmlns="http://www.w3.org/2000/svg">
<path d="M421.168 11.8557H489.488L537.846 52.6413H659.893V58.6325H532.32L480.277 15.0152H423.517L415.884 20.4999H407.957L421.168 11.8557Z" fill="url(#paint0_linear_455_18)"/>
<path d="M424.272 16.3786L478.895 16.3786L530.477 59.8939H660.352V66.8311H526.332L469.002 20.6964L418.103 20.6964L424.272 16.3786Z" fill="url(#paint1_linear_455_18)"/>
<path d="M897.685 10.7991L827.534 10.7991L775.492 52.9566L652.986 52.9566L652.986 58.6325L778.716 59.8939L836.285 13.9668L895.371 13.9668L903.28 19.4071L911.354 19.3674L897.685 10.7991Z" fill="url(#paint2_linear_455_18)"/>
<path d="M894.177 15.2571L837.206 15.2571L779.637 61.4705L657.965 59.8938L657.965 66.8311L785.624 67.1464L843.051 19.8188L899.865 19.5396L894.177 15.2571Z" fill="url(#paint3_linear_455_18)"/>
<path d="M2.86393 51.6314L207.532 51.3917L217.857 44.2736L37.2603 44.4851L14.0218 9.11297L2.86483 9.12603L2.86393 51.6314Z" fill="url(#paint4_linear_455_18)"/>
<path d="M214.938 43.9468L389.36 44.8041L379.877 51.6953L225.591 51.6953L214.938 43.9468Z" fill="url(#paint5_linear_455_18)"/>
<path d="M409.876 24.4972L393.897 38.008L392.61 36.892L408.588 23.3813L409.876 24.4972Z" fill="white"/>
<path d="M73.6055 40.3435L333.992 40.3435L333.536 41.7309L73.149 41.7309L73.6055 40.3435Z" fill="white"/>
<path d="M1327.05 53.929L1122.38 53.6893L1112.06 46.5712L1292.65 46.7827L1315.89 11.4106L1327.05 11.4236L1327.05 53.929Z" fill="url(#paint6_linear_455_18)"/>
<path d="M1114.97 46.2444L940.553 47.1017L950.037 53.9929L1104.32 53.9929L1114.97 46.2444Z" fill="url(#paint7_linear_455_18)"/>
<path d="M920.037 26.7948L936.016 40.3056L937.303 39.1896L921.325 25.6789L920.037 26.7948Z" fill="white"/>
<path d="M1256.31 42.6411L995.922 42.6411L996.378 44.0285L1256.77 44.0285L1256.31 42.6411Z" fill="white"/>
<defs>
<linearGradient id="paint0_linear_455_18" x1="415.297" y1="19.9521" x2="423.87" y2="67.5431" gradientUnits="userSpaceOnUse">
<stop stop-color="white"/>
<stop offset="0.315" stop-color="white"/>
<stop offset="0.635" stop-color="#B8B6B6"/>
<stop offset="0.835" stop-color="white"/>
</linearGradient>
<linearGradient id="paint1_linear_455_18" x1="483.249" y1="8.21962" x2="483.497" y2="37.4188" gradientUnits="userSpaceOnUse">
<stop offset="0.31" stop-color="#0A69A5"/>
<stop offset="0.5699" stop-color="#22EAEA"/>
<stop offset="0.705" stop-color="#22EAEA"/>
<stop offset="0.9999" stop-color="#0A69A5"/>
<stop offset="1" stop-color="#0A69A5"/>
</linearGradient>
<linearGradient id="paint2_linear_455_18" x1="904.932" y1="18.857" x2="896.812" y2="66.3414" gradientUnits="userSpaceOnUse">
<stop stop-color="white"/>
<stop offset="0.315" stop-color="white"/>
<stop offset="0.635" stop-color="#B8B6B6"/>
<stop offset="0.835" stop-color="white"/>
</linearGradient>
<linearGradient id="paint3_linear_455_18" x1="815.198" y1="7.50007" x2="815.069" y2="36.6447" gradientUnits="userSpaceOnUse">
<stop offset="0.31" stop-color="#0A69A5"/>
<stop offset="0.5699" stop-color="#22EAEA"/>
<stop offset="0.705" stop-color="#22EAEA"/>
<stop offset="0.9999" stop-color="#0A69A5"/>
<stop offset="1" stop-color="#0A69A5"/>
</linearGradient>
<linearGradient id="paint4_linear_455_18" x1="123.382" y1="52.5038" x2="123.509" y2="22.4141" gradientUnits="userSpaceOnUse">
<stop stop-color="#0A69A5"/>
<stop offset="0.35" stop-color="#22EAEA"/>
<stop offset="0.475" stop-color="#22EAEA"/>
<stop offset="0.82" stop-color="#0A69A5"/>
<stop offset="1" stop-color="#0A69A5"/>
</linearGradient>
<linearGradient id="paint5_linear_455_18" x1="278.255" y1="41.9172" x2="278.243" y2="50.8877" gradientUnits="userSpaceOnUse">
<stop stop-color="#0A69A5"/>
<stop offset="0.585" stop-color="#22EAEA"/>
<stop offset="1" stop-color="#0A69A5"/>
</linearGradient>
<linearGradient id="paint6_linear_455_18" x1="1206.53" y1="54.8014" x2="1206.4" y2="24.7117" gradientUnits="userSpaceOnUse">
<stop stop-color="#0A69A5"/>
<stop offset="0.35" stop-color="#22EAEA"/>
<stop offset="0.475" stop-color="#22EAEA"/>
<stop offset="0.82" stop-color="#0A69A5"/>
<stop offset="1" stop-color="#0A69A5"/>
</linearGradient>
<linearGradient id="paint7_linear_455_18" x1="1051.66" y1="44.2148" x2="1051.67" y2="53.1853" gradientUnits="userSpaceOnUse">
<stop stop-color="#0A69A5"/>
<stop offset="0.585" stop-color="#22EAEA"/>
<stop offset="1" stop-color="#0A69A5"/>
</linearGradient>
</defs>
</svg>
