<svg width="404" height="43" viewBox="0 0 404 43" fill="none" xmlns="http://www.w3.org/2000/svg">
<g filter="url(#filter0_b_445_64)">
<path d="M0 42.2296H404V27.2296H354.5L352 24.2296H275.5H262L258 20.2296H252L244 4.72961H235.5L230.5 9.22961H177.5L172 4.72961H163L153.5 20.2296H148L144 24.2296H132H112H60H52L49.5 27.2296H0V42.2296Z" fill="url(#paint0_linear_445_64)" fill-opacity="0.3"/>
</g>
<path d="M163.467 4.33796H244.33L252.242 19.7757H258.097L261.895 23.6699H275.425" stroke="#0A69A5"/>
<path d="M244.328 4.33796H162.832L153.416 19.7757H147.561L143.763 23.6699H130.233" stroke="#0A69A5"/>
<path d="M264.42 19.4975H289.115L292.754 23.809H352.255L354.628 26.7296H403.842" stroke="#0A69A5"/>
<path d="M139.58 19.4975H114.885L111.246 23.809H51.7454L49.3717 26.7296H0.157529" stroke="#0A69A5"/>
<path d="M173.437 5.39424L177.57 8.70569H230.064L233.953 5.39424H173.437Z" fill="url(#paint1_linear_445_64)" stroke="#0A69A5"/>
<path d="M110.613 21.3055H50.9549L46.9988 24.2262L-1.52588e-05 24.0871V21.3055H9.33644L10.7607 18.524H12.6596L11.3936 21.3055H13.4508L14.5585 18.524L16.774 18.663L15.508 21.3055H17.0905L18.3564 18.524H20.4136L19.1476 21.3055H21.2048L22.3125 18.663L24.3697 18.524L22.9455 21.3055H45.7328L49.6889 18.524H80.5467L78.4895 16.0205H80.5467L82.7622 18.524H84.9776L82.7622 16.0205H84.9776L86.8765 18.524H88.6172L86.7183 16.0205H88.6172L90.5162 18.524H92.7316L90.8326 16.0205H92.7316L94.4723 18.524H96.6877L94.4723 16.0205H96.3712L98.7449 18.524H100.327L98.3335 16.0205H100.549L102.543 18.524H104.125L102.226 16.0205H104.125L105.866 18.524H107.607L105.866 16.0205H107.29L109.189 18.524H110.613V21.3055Z" fill="url(#paint2_linear_445_64)"/>
<path d="M293.387 21.5837H353.045L357.001 24.5044L404 24.3653V21.5837H394.664L393.239 18.8022H391.34L392.606 21.5837H390.549L389.441 18.8022L387.226 18.9412L388.492 21.5837H386.91L385.644 18.8022H383.586L384.852 21.5837H382.795L381.687 18.9412L379.63 18.8022L381.054 21.5837H358.267L354.311 18.8022H323.453L325.51 16.2987H323.453L321.238 18.8022H319.022L321.238 16.2987H319.022L317.123 18.8022H315.383L317.282 16.2987H315.383L313.484 18.8022H311.268L313.167 16.2987H311.268L309.528 18.8022H307.312L309.528 16.2987H307.629L305.255 18.8022H303.673L305.667 16.2987H303.451L301.457 18.8022H299.875L301.774 16.2987H299.875L298.134 18.8022H296.393L298.134 16.2987H296.71L294.811 18.8022H293.387V21.5837Z" fill="url(#paint3_linear_445_64)"/>
<path d="M150.332 16.4377L161.093 0.999993H247.336L255.881 15.4642" stroke="#22EAEA"/>
<defs>
<filter id="filter0_b_445_64" x="-45" y="-40.2704" width="494" height="127.5" filterUnits="userSpaceOnUse" color-interpolation-filters="sRGB">
<feFlood flood-opacity="0" result="BackgroundImageFix"/>
<feGaussianBlur in="BackgroundImageFix" stdDeviation="22.5"/>
<feComposite in2="SourceAlpha" operator="in" result="effect1_backgroundBlur_445_64"/>
<feBlend mode="normal" in="SourceGraphic" in2="effect1_backgroundBlur_445_64" result="shape"/>
</filter>
<linearGradient id="paint0_linear_445_64" x1="196.871" y1="46.7296" x2="197.354" y2="-159.496" gradientUnits="userSpaceOnUse">
<stop stop-color="#0A69A5" stop-opacity="0.6"/>
<stop offset="1" stop-color="#0A69A5" stop-opacity="0.4"/>
</linearGradient>
<linearGradient id="paint1_linear_445_64" x1="167.583" y1="6.98043" x2="245.914" y2="6.98043" gradientUnits="userSpaceOnUse">
<stop stop-color="#0A69A5"/>
<stop offset="0.5" stop-color="#22EAEA"/>
<stop offset="1" stop-color="#0A69A5"/>
</linearGradient>
<linearGradient id="paint2_linear_445_64" x1="147.326" y1="15.8815" x2="-25.0229" y2="17.0437" gradientUnits="userSpaceOnUse">
<stop stop-color="#0A69A5"/>
<stop offset="0.5" stop-color="#22EAEA"/>
<stop offset="1" stop-color="#0A69A5"/>
</linearGradient>
<linearGradient id="paint3_linear_445_64" x1="277.72" y1="16.1597" x2="429.937" y2="26.9505" gradientUnits="userSpaceOnUse">
<stop stop-color="#0A69A5"/>
<stop offset="0.5" stop-color="#22EAEA"/>
<stop offset="1" stop-color="#0A69A5"/>
</linearGradient>
</defs>
</svg>
