<svg width="745" height="58" viewBox="0 0 745 58" fill="none" xmlns="http://www.w3.org/2000/svg">
<path d="M302.133 4.99247H450.849L465.401 23.4574H476.169L483.154 28.1152H508.037" stroke="#0A69A5" stroke-width="2"/>
<path d="M450.85 4.99247H300.969L283.653 23.4574H272.885L265.9 28.1152H241.017" stroke="#0A69A5" stroke-width="2"/>
<path d="M487.795 23.1248H533.212L539.905 28.2817H649.333L653.698 31.775H744.208" stroke="#0A69A5" stroke-width="2"/>
<path d="M258.205 23.1248H212.788L206.095 28.2817H96.6674L92.302 31.775H0.000339029" stroke="#0A69A5" stroke-width="2"/>
<path d="M321.932 6.65788L327.99 9.81476H424.69L430.391 6.65788H321.932Z" fill="url(#paint0_linear_445_93)" stroke="#0A69A5" stroke-width="2"/>
<path d="M204.93 25.2873H95.2113L87.9356 28.7807H0.000152588V25.4537L18.6704 25.2873L21.2897 21.9603H24.7821L22.4538 25.2873H26.2372L28.2744 21.9603L32.3488 22.1267L30.0206 25.2873H32.9309L35.2591 21.9603H39.0425L36.7143 25.2873H40.4977L42.5349 22.1267L46.3183 21.9603L43.699 25.2873H85.6074L92.8831 21.9603H149.634L145.851 18.966H149.634L153.708 21.9603H157.783L153.708 18.966H157.783L161.275 21.9603H164.477L160.984 18.966H164.477L167.969 21.9603H172.043L168.551 18.966H172.043L175.245 21.9603H179.319L175.245 18.966H178.737L183.102 21.9603H186.013L182.346 18.966H186.42L190.087 21.9603H192.997L189.505 18.966H192.997L196.199 21.9603H199.4L196.199 18.966H198.818L202.31 21.9603H204.93V25.2873Z" fill="url(#paint1_linear_445_93)"/>
<path d="M541.07 25.62H650.789L658.064 29.1133L744.5 28.947V25.62H727.33L724.71 22.293H721.218L723.546 25.62H719.763L717.726 22.293L713.651 22.4593L715.979 25.62H713.069L710.741 22.293H706.957L709.286 25.62H705.502L703.465 22.4593L699.682 22.293L702.301 25.62H660.393L653.117 22.293H596.366L600.149 19.2986H596.366L592.292 22.293H588.217L592.292 19.2986H588.217L584.725 22.293H581.523L585.016 19.2986H581.523L578.031 22.293H573.957L577.449 19.2986H573.957L570.755 22.293H566.681L570.755 19.2986H567.263L562.898 22.293H559.987L563.654 19.2986H559.58L555.913 22.293H553.003L556.495 19.2986H553.003L549.801 22.293H546.6L549.801 19.2986H547.182L543.69 22.293H541.07V25.62Z" fill="url(#paint2_linear_445_93)"/>
<path d="M277.98 19.465L297.771 1.00002H456.382L472.098 18.3005" stroke="#22EAEA" stroke-width="2"/>
<g filter="url(#filter0_b_445_93)">
<path d="M0.5 58H744.234V32.5697H652.95L648.95 28.9935H578.456H508.461H482.463L475.463 24.2254H464.964L450.965 5.54998H434.467L425.467 10.7155H327.975L317.976 5.54998H301.477L284.478 24.2254H272.979L265.98 28.5962H241.481H206.984H108.992H97.4925L92.9929 32.3888H0.5V58Z" fill="url(#paint3_linear_445_93)" fill-opacity="0.3"/>
</g>
<defs>
<filter id="filter0_b_445_93" x="-44.5" y="-39.45" width="833.734" height="142.45" filterUnits="userSpaceOnUse" color-interpolation-filters="sRGB">
<feFlood flood-opacity="0" result="BackgroundImageFix"/>
<feGaussianBlur in="BackgroundImageFix" stdDeviation="22.5"/>
<feComposite in2="SourceAlpha" operator="in" result="effect1_backgroundBlur_445_93"/>
<feBlend mode="normal" in="SourceGraphic" in2="effect1_backgroundBlur_445_93" result="shape"/>
</filter>
<linearGradient id="paint0_linear_445_93" x1="309.701" y1="8.15315" x2="453.761" y2="8.15315" gradientUnits="userSpaceOnUse">
<stop stop-color="#0A69A5"/>
<stop offset="0.5" stop-color="#22EAEA"/>
<stop offset="1" stop-color="#0A69A5"/>
</linearGradient>
<linearGradient id="paint1_linear_445_93" x1="272.449" y1="18.7997" x2="-68.5318" y2="66.5433" gradientUnits="userSpaceOnUse">
<stop stop-color="#0A69A5"/>
<stop offset="0.5" stop-color="#22EAEA"/>
<stop offset="1" stop-color="#0A69A5"/>
</linearGradient>
<linearGradient id="paint2_linear_445_93" x1="512.258" y1="19.1323" x2="790.305" y2="49.4401" gradientUnits="userSpaceOnUse">
<stop stop-color="#0A69A5"/>
<stop offset="0.5" stop-color="#22EAEA"/>
<stop offset="1" stop-color="#0A69A5"/>
</linearGradient>
<linearGradient id="paint3_linear_445_93" x1="362.12" y1="57.2053" x2="362.515" y2="-196.43" gradientUnits="userSpaceOnUse">
<stop stop-color="#0A69A5" stop-opacity="0.6"/>
<stop offset="1" stop-color="#0A69A5" stop-opacity="0.4"/>
</linearGradient>
</defs>
</svg>
