<svg width="745" height="58" viewBox="0 0 745 58" fill="none" xmlns="http://www.w3.org/2000/svg">
<path d="M302.133 53.0075H450.849L465.401 34.5426H476.169L483.154 29.8848H508.037" stroke="#0A69A5" stroke-width="2"/>
<path d="M450.85 53.0075H300.969L283.653 34.5426H272.885L265.9 29.8848H241.017" stroke="#0A69A5" stroke-width="2"/>
<path d="M487.795 34.8752H533.212L539.905 29.7183H649.333L653.698 26.225H744.208" stroke="#0A69A5" stroke-width="2"/>
<path d="M258.205 34.8752H212.788L206.095 29.7183H96.6674L92.302 26.225H0.000339029" stroke="#0A69A5" stroke-width="2"/>
<path d="M321.932 51.3422L327.99 48.1853H424.69L430.391 51.3422H321.932Z" fill="url(#paint0_linear_445_79)" stroke="#0A69A5" stroke-width="2"/>
<path d="M204.93 32.7126H95.2113L87.9356 29.2192H0.000152588V32.5463L18.6704 32.7126L21.2897 36.0396H24.7821L22.4538 32.7126H26.2372L28.2744 36.0396L32.3488 35.8733L30.0206 32.7126H32.9309L35.2591 36.0396H39.0425L36.7143 32.7126H40.4977L42.5349 35.8733L46.3183 36.0396L43.699 32.7126H85.6074L92.8831 36.0396H149.634L145.851 39.0339H149.634L153.708 36.0396H157.783L153.708 39.0339H157.783L161.275 36.0396H164.477L160.984 39.0339H164.477L167.969 36.0396H172.043L168.551 39.0339H172.043L175.245 36.0396H179.319L175.245 39.0339H178.737L183.102 36.0396H186.013L182.346 39.0339H186.42L190.087 36.0396H192.997L189.505 39.0339H192.997L196.199 36.0396H199.4L196.199 39.0339H198.818L202.31 36.0396H204.93V32.7126Z" fill="url(#paint1_linear_445_79)"/>
<path d="M541.07 32.38H650.789L658.064 28.8866L744.5 29.0529V32.38H727.33L724.71 35.707H721.218L723.546 32.38H719.763L717.726 35.707L713.651 35.5406L715.979 32.38H713.069L710.741 35.707H706.957L709.286 32.38H705.502L703.465 35.5406L699.682 35.707L702.301 32.38H660.393L653.117 35.707H596.366L600.149 38.7013H596.366L592.292 35.707H588.217L592.292 38.7013H588.217L584.725 35.707H581.523L585.016 38.7013H581.523L578.031 35.707H573.957L577.449 38.7013H573.957L570.755 35.707H566.681L570.755 38.7013H567.263L562.898 35.707H559.987L563.654 38.7013H559.58L555.913 35.707H553.003L556.495 38.7013H553.003L549.801 35.707H546.6L549.801 38.7013H547.182L543.69 35.707H541.07V32.38Z" fill="url(#paint2_linear_445_79)"/>
<path d="M277.98 38.535L297.771 57H456.382L472.098 39.6995" stroke="#22EAEA" stroke-width="2"/>
<g filter="url(#filter0_b_445_79)">
<path d="M0.5 0H744.234V25.4303H652.95L648.95 29.0065H578.456H508.461H482.463L475.463 33.7746H464.964L450.965 52.45H434.467L425.467 47.2845H327.975L317.976 52.45H301.477L284.478 33.7746H272.979L265.98 29.4038H241.481H206.984H108.992H97.4925L92.9929 25.6112H0.5V0Z" fill="url(#paint3_linear_445_79)" fill-opacity="0.3"/>
</g>
<defs>
<filter id="filter0_b_445_79" x="-44.5" y="-45" width="833.734" height="142.45" filterUnits="userSpaceOnUse" color-interpolation-filters="sRGB">
<feFlood flood-opacity="0" result="BackgroundImageFix"/>
<feGaussianBlur in="BackgroundImageFix" stdDeviation="22.5"/>
<feComposite in2="SourceAlpha" operator="in" result="effect1_backgroundBlur_445_79"/>
<feBlend mode="normal" in="SourceGraphic" in2="effect1_backgroundBlur_445_79" result="shape"/>
</filter>
<linearGradient id="paint0_linear_445_79" x1="309.701" y1="49.8469" x2="453.761" y2="49.8469" gradientUnits="userSpaceOnUse">
<stop stop-color="#0A69A5"/>
<stop offset="0.5" stop-color="#22EAEA"/>
<stop offset="1" stop-color="#0A69A5"/>
</linearGradient>
<linearGradient id="paint1_linear_445_79" x1="272.449" y1="39.2003" x2="-68.5318" y2="-8.54332" gradientUnits="userSpaceOnUse">
<stop stop-color="#0A69A5"/>
<stop offset="0.5" stop-color="#22EAEA"/>
<stop offset="1" stop-color="#0A69A5"/>
</linearGradient>
<linearGradient id="paint2_linear_445_79" x1="512.258" y1="38.8676" x2="790.305" y2="8.55981" gradientUnits="userSpaceOnUse">
<stop stop-color="#0A69A5"/>
<stop offset="0.5" stop-color="#22EAEA"/>
<stop offset="1" stop-color="#0A69A5"/>
</linearGradient>
<linearGradient id="paint3_linear_445_79" x1="362.12" y1="0.794697" x2="362.515" y2="254.43" gradientUnits="userSpaceOnUse">
<stop stop-color="#0A69A5" stop-opacity="0.6"/>
<stop offset="1" stop-color="#0A69A5" stop-opacity="0.4"/>
</linearGradient>
</defs>
</svg>
